<svg width="100" height="100" viewBox="0 0 100 100" fill="none" xmlns="http://www.w3.org/2000/svg">
<path d="M0 17.2031H100V82.7969H0V17.2031Z" fill="#D80027"/>
<path d="M27.225 30.9032L19.075 30.9126L19.0531 30.9251L19.0656 30.9032L16.575 22.8313L14.3625 30.9126L6.28751 30.9032L12.9938 35.6438H13.0344L12.9563 35.7001L10.2281 43.7345L16.7438 38.6907L16.7563 38.6532L16.7688 38.6907L23.2781 43.7345L20.55 35.7001L20.4781 35.6438H20.5031L27.225 30.9032ZM41.1 43.8688H39.4313L38.9219 42.222L38.4688 43.8688H36.825L38.1938 44.8407H38.2031L38.1875 44.8532L37.6281 46.4938L38.9563 45.4657L38.9594 45.4563L38.9625 45.4657L40.2938 46.4938L39.7313 44.8532L39.7156 44.8407H39.725L41.1 43.8688ZM31.8813 52.4188L31.8344 50.6876L30.9531 52.1376L29.375 51.6532L30.4313 52.9845L30.4344 52.9876L30.4188 52.9907L29.4438 54.4032L30.9938 53.8095L31 53.8001V53.8095L31.9938 55.1845L31.9031 53.447L31.9 53.4407L33.4781 52.9063L31.8813 52.4188ZM38.3688 35.3626L40.0188 35.2813L40.0281 35.2751L40.025 35.2876L40.5813 36.9157L40.9875 35.2251L40.9813 35.2095L40.9875 35.2126L42.6438 35.2095L41.2563 34.2438H41.25L41.2563 34.2376L41.7094 32.572L40.4563 33.6782L39.0906 32.7188L39.7125 34.322H39.7031L38.3688 35.3626ZM36.6781 25.3938L36.6906 25.397L38.2688 24.8876L36.6781 24.3845L36.6719 24.3876L36.6781 24.3782L36.65 22.647L35.7563 24.0907L34.1813 23.5845L35.2219 24.9251L35.2344 24.9282L35.2094 24.9376L34.225 26.3313L35.7781 25.7532L35.7844 25.7438V25.7532L36.7656 27.1501L36.6906 25.4095L36.6781 25.3938Z" fill="#FFDA44"/>
</svg>
