<svg width="100" height="100" viewBox="0 0 100 100" fill="none" xmlns="http://www.w3.org/2000/svg">
<path d="M0 16.6675H100V83.3327H0V16.6675Z" fill="#F0F0F0"/>
<path d="M0 16.6675H100V50.0001H0V16.6675Z" fill="#D80027"/>
<path d="M16.3043 33.3334C16.3043 28.477 19.7176 24.4199 24.2754 23.4244C23.5614 23.2679 22.8325 23.1888 22.1016 23.1885C16.4984 23.1885 11.9566 27.7303 11.9566 33.3332C11.9566 38.9361 16.4986 43.4781 22.1016 43.4781C22.848 43.4781 23.5748 43.3951 24.2754 43.2422C19.7176 42.2471 16.3043 38.19 16.3043 33.3334ZM29.3478 23.9133L30.0674 26.1275H32.3957L30.5119 27.4961L31.2314 29.7104L29.3478 28.342L27.4641 29.7104L28.1838 27.4961L26.3 26.1275H28.6283L29.3478 23.9133Z" fill="#F0F0F0"/>
<path d="M23.7 28.261L24.4193 30.4752H26.7477L24.8639 31.8438L25.5834 34.0581L23.7 32.6897L21.8162 34.0581L22.5359 31.8438L20.6521 30.4752H22.9805L23.7 28.261ZM34.9957 28.261L35.7152 30.4752H38.0436L36.1598 31.8438L36.8793 34.0581L34.9957 32.6897L33.1121 34.0581L33.8318 31.8438L31.948 30.4752H34.2764L34.9957 28.261ZM32.8217 34.7827L33.5412 36.9969H35.8695L33.9859 38.3655L34.7055 40.5797L32.8217 39.2114L30.9383 40.5797L31.6578 38.3655L29.7742 36.9969H32.1023L32.8217 34.7827ZM25.8738 34.7827L26.5932 36.9969H28.9215L27.0379 38.3655L27.7574 40.5797L25.8738 39.2114L23.9902 40.5797L24.7098 38.3655L22.8262 36.9969H25.1543L25.8738 34.7827Z" fill="#F0F0F0"/>
</svg>
