<svg width="50" height="50" viewBox="0 0 50 50" fill="none" xmlns="http://www.w3.org/2000/svg">
<g id="Frame" clip-path="url(#clip0_75_461)">
<g id="Group">
<path id="Vector" d="M25 50C38.8071 50 50 38.8071 50 25C50 11.1929 38.8071 0 25 0C11.1929 0 0 11.1929 0 25C0 38.8071 11.1929 50 25 50Z" fill="url(#paint0_linear_75_461)"/>
<g id="Group_2">
<path id="Vector_2" d="M30.3111 11.1113H19.7C14.9667 11.1113 11.1222 14.9558 11.1222 19.6891V30.3002C11.1222 35.0336 14.9667 38.878 19.7 38.878H30.3111C35.0444 38.878 38.8889 35.0336 38.8889 30.3002V19.6891C38.8889 14.9558 35.0444 11.1113 30.3111 11.1113ZM35.7889 30.3113C35.7889 33.3335 33.3333 35.8002 30.3 35.8002H19.6889C16.6667 35.8002 14.2 33.3447 14.2 30.3113V19.7002C14.2 16.678 16.6556 14.2113 19.6889 14.2113H30.3C33.3222 14.2113 35.7889 16.6669 35.7889 19.7002V30.3113Z" fill="white"/>
<path id="Vector_3" d="M25 17.9004C21.0889 17.9004 17.9 21.0893 17.9 25.0004C17.9 28.9115 21.0889 32.1004 25 32.1004C28.9111 32.1004 32.1 28.9115 32.1 25.0004C32.1 21.0893 28.9111 17.9004 25 17.9004ZM25 29.3115C22.6222 29.3115 20.6889 27.3782 20.6889 25.0004C20.6889 22.6226 22.6222 20.6893 25 20.6893C27.3778 20.6893 29.3111 22.6226 29.3111 25.0004C29.3111 27.3782 27.3778 29.3115 25 29.3115Z" fill="white"/>
<path id="Vector_4" d="M32.6416 18.6779C33.2957 18.5713 33.7396 17.9547 33.6331 17.3006C33.5266 16.6464 32.9099 16.2025 32.2558 16.3091C31.6017 16.4156 31.1578 17.0322 31.2643 17.6863C31.3708 18.3405 31.9875 18.7844 32.6416 18.6779Z" fill="white"/>
</g>
</g>
</g>
<defs>
<linearGradient id="paint0_linear_75_461" x1="5.96433" y1="44.0357" x2="41.4921" y2="8.50789" gradientUnits="userSpaceOnUse">
<stop stop-color="#FEE411"/>
<stop offset="0.052" stop-color="#FEDB16"/>
<stop offset="0.138" stop-color="#FEC125"/>
<stop offset="0.248" stop-color="#FE983D"/>
<stop offset="0.376" stop-color="#FE5F5E"/>
<stop offset="0.5" stop-color="#FE2181"/>
<stop offset="1" stop-color="#9000DC"/>
</linearGradient>
<clipPath id="clip0_75_461">
<rect width="50" height="50" fill="white"/>
</clipPath>
</defs>
</svg>
