<svg width="100" height="100" viewBox="0 0 100 100" fill="none" xmlns="http://www.w3.org/2000/svg">
<g id="Frame">
<g id="Group">
<path id="Vector" d="M63.5568 49.8221L69.6552 45.0041C69.7929 44.8961 69.923 44.7786 70.0445 44.6526C71.7191 42.9076 72.5294 40.527 72.3261 37.9492C72.0652 35.3642 70.924 32.9474 69.0937 31.1035C67.2633 29.2595 64.855 28.1005 62.272 27.8205C59.6626 27.5934 57.2536 28.402 55.4865 30.0979C55.3613 30.2188 55.2445 30.3482 55.1368 30.485L50.396 36.4861L28.6572 32.2149C27.8847 32.0628 27.0841 32.1567 26.3678 32.4833C25.6515 32.8099 25.0556 33.3527 24.6638 34.0356L24.5896 34.1651C24.3249 34.6257 24.1607 35.1371 24.1076 35.6657C24.0546 36.1943 24.1139 36.7281 24.2818 37.2321C24.4496 37.7362 24.7222 38.199 25.0815 38.5903C25.4409 38.9815 25.8789 39.2923 26.3669 39.5024L42.522 46.4549L33.187 58.2744L28.1732 55.7858C27.3727 55.3886 26.4572 55.2888 25.59 55.5043C24.7228 55.7198 23.9604 56.2365 23.439 56.9621C22.9176 57.6877 22.671 58.5751 22.7433 59.4657C22.8157 60.3563 23.2022 61.1923 23.8339 61.8242L28.7152 66.7053L28.7204 66.7111L33.4288 71.4193L33.4337 71.4236L38.3161 76.3065C38.9481 76.9382 39.784 77.3248 40.6746 77.3972C41.5653 77.4696 42.4527 77.2231 43.1783 76.7016C43.904 76.1802 44.4207 75.4178 44.6362 74.5506C44.8517 73.6834 44.752 72.7679 44.3548 71.9674L41.8665 66.9537L53.6253 57.6656L60.4978 73.6328C60.7078 74.1208 61.0187 74.5588 61.41 74.9181C61.8013 75.2775 62.2641 75.55 62.7681 75.7179C63.2722 75.8857 63.806 75.9451 64.3346 75.892C64.8632 75.839 65.3746 75.6748 65.8353 75.4102L65.9648 75.3359C66.6474 74.9441 67.1901 74.3481 67.5166 73.6319C67.8431 72.9157 67.937 72.1151 67.7851 71.3428L63.5568 49.8221ZM56.2068 53.7826C56.0859 53.5097 55.9046 53.2677 55.6764 53.0752C55.4483 52.8826 55.1794 52.7444 54.89 52.6711C54.6006 52.5978 54.2983 52.5913 54.006 52.652C53.7137 52.7128 53.4391 52.8392 53.2029 53.0217L38.2155 64.8594C37.8577 65.1402 37.6082 65.5364 37.5096 65.9804C37.4109 66.4245 37.4692 66.889 37.6745 67.2949L40.4788 72.9447L35.5876 68.0537L35.5827 68.0492L32.0925 64.5588L32.0868 64.5527L27.1956 59.6617L32.8695 62.4777C33.2738 62.6751 33.7335 62.7281 34.1721 62.6278C34.6108 62.5275 35.0018 62.28 35.2802 61.9266L47.128 46.9256C47.9702 45.976 47.5822 44.3475 46.4058 43.8736L28.4884 36.1627L50.8128 40.549C51.165 40.6168 51.529 40.5869 51.8655 40.4625C52.2019 40.3382 52.4979 40.1242 52.7214 39.8438L58.2042 32.9037C60.2292 30.9756 63.8585 31.3926 66.3032 33.8373C67.5146 35.011 68.2692 36.5771 68.4322 38.2559C68.5458 39.7018 68.121 41.0082 67.2345 41.9383L60.2001 47.4957C59.9192 47.7188 59.7048 48.0147 59.5802 48.3511C59.4557 48.6875 59.4257 49.0517 59.4937 49.4039L63.8372 71.5117L56.2068 53.7826Z" fill="#FDCA01"/>
<path id="Vector_2" d="M55.8549 75.2825L38.7312 92.4064C38.4911 92.6466 38.2059 92.8371 37.8921 92.9672C37.5782 93.0972 37.2418 93.1641 36.9021 93.1641C36.5624 93.1641 36.2261 93.0972 35.9122 92.9672C35.5984 92.8371 35.3132 92.6466 35.073 92.4064L30.7273 88.0609C30.3361 87.68 30.0729 87.1869 29.9743 86.6498C29.8758 86.1128 29.9466 85.5584 30.1771 85.0634C31.1914 82.9664 31.5277 80.6057 31.1394 78.3089C30.7511 76.0121 29.6575 73.8931 28.0104 72.246C26.3632 70.5989 24.2442 69.5054 21.9474 69.1172C19.6506 68.729 17.2899 69.0653 15.193 70.0796C14.698 70.3101 14.1436 70.3809 13.6066 70.2823C13.0696 70.1837 12.5765 69.9205 12.1957 69.5292L7.59355 64.9271C7.35335 64.6869 7.16281 64.4017 7.03281 64.0879C6.90281 63.774 6.8359 63.4377 6.8359 63.098C6.8359 62.7583 6.90281 62.4219 7.03281 62.1081C7.16281 61.7942 7.35335 61.5091 7.59355 61.2689L24.7174 44.1448C25.081 43.778 25.2845 43.2821 25.2834 42.7656C25.2823 42.249 25.0766 41.754 24.7113 41.3888C24.3461 41.0235 23.8511 40.8178 23.3346 40.8167C22.818 40.8156 22.3221 41.0191 21.9553 41.3827L4.83144 58.5066C3.61377 59.7243 2.92969 61.3758 2.92969 63.0979C2.92969 64.8199 3.61377 66.4715 4.83144 67.6892L9.43378 72.2915C10.3885 73.2562 11.6197 73.9 12.9567 74.1336C14.2936 74.3673 15.6702 74.1793 16.8955 73.5956C18.2622 72.935 19.8006 72.716 21.2974 72.9692C22.7941 73.2223 24.175 73.935 25.2484 75.0084C26.3218 76.0818 27.0346 77.4626 27.2878 78.9593C27.541 80.4561 27.3221 81.9945 26.6615 83.3612C26.0778 84.5866 25.8897 85.9632 26.1233 87.3002C26.3569 88.6372 27.0007 89.8684 27.9654 90.8232L32.3111 95.1687C33.5288 96.3863 35.1803 97.0704 36.9023 97.0704C38.6244 97.0704 40.2759 96.3863 41.4935 95.1687L58.6174 78.0448C58.9837 77.6785 59.1895 77.1817 59.1895 76.6637C59.1895 76.1456 58.9837 75.6488 58.6174 75.2825C58.2511 74.9162 57.7543 74.7104 57.2362 74.7104C56.7182 74.7104 56.2214 74.9162 55.8551 75.2825H55.8549ZM97.0701 36.9025C97.0724 36.0494 96.9056 35.2044 96.5791 34.4163C96.2527 33.6283 95.7732 32.9128 95.1684 32.3112L90.8226 27.9655C89.868 27.0008 88.6369 26.357 87.2999 26.1233C85.9629 25.8896 84.5864 26.0777 83.3611 26.6614C81.9944 27.322 80.456 27.5408 78.9594 27.2876C77.4627 27.0344 76.0819 26.3217 75.0085 25.2484C73.9351 24.175 73.2224 22.7943 72.9691 21.2976C72.7159 19.8009 72.9346 18.2625 73.5951 16.8958C74.179 15.6705 74.3671 14.2939 74.1335 12.9569C73.8998 11.6198 73.256 10.3886 72.2912 9.4339L67.6889 4.83136C66.4711 3.61373 64.8196 2.92969 63.0975 2.92969C61.3755 2.92969 59.724 3.61373 58.5062 4.83136L34.9066 28.431C34.5403 28.7972 34.3345 29.294 34.3344 29.8121C34.3344 30.3301 34.5402 30.8269 34.9064 31.1933C35.2727 31.5596 35.7695 31.7654 36.2876 31.7655C36.8056 31.7655 37.3024 31.5597 37.6687 31.1935L50.1736 18.6886L50.5189 19.0339C50.8852 19.4002 51.382 19.6059 51.9001 19.6059C52.4181 19.6059 52.9149 19.4001 53.2811 19.0338C53.6474 18.6675 53.8532 18.1707 53.8532 17.6527C53.8531 17.1347 53.6474 16.6379 53.281 16.2716L52.9357 15.9263L61.2686 7.59366C61.7537 7.1086 62.4116 6.8361 63.0976 6.8361C63.7837 6.8361 64.4416 7.1086 64.9268 7.59366L69.5291 12.1962C69.9204 12.577 70.1835 13.0701 70.2821 13.6071C70.3807 14.1441 70.3098 14.6985 70.0793 15.1935C69.0652 17.2905 68.7289 19.6511 69.1172 21.9478C69.5055 24.2446 70.5991 26.3635 72.2462 28.0106C73.8932 29.6577 76.0122 30.7512 78.3089 31.1395C80.6056 31.5278 82.9663 31.1916 85.0633 30.1775C85.5582 29.947 86.1126 29.8761 86.6496 29.9747C87.1867 30.0732 87.6797 30.3364 88.0605 30.7276L92.4062 35.0733C92.6465 35.3135 92.837 35.5987 92.967 35.9125C93.0971 36.2264 93.164 36.5627 93.164 36.9025C93.164 37.2422 93.0971 37.5785 92.967 37.8924C92.837 38.2062 92.6465 38.4914 92.4062 38.7316L84.0736 47.0642L83.7283 46.7189C83.5469 46.5375 83.3316 46.3936 83.0946 46.2954C82.8577 46.1973 82.6037 46.1468 82.3472 46.1468C82.0907 46.1468 81.8367 46.1973 81.5997 46.2954C81.3627 46.3936 81.1474 46.5375 80.966 46.7189C80.7846 46.9002 80.6408 47.1156 80.5426 47.3525C80.4444 47.5895 80.3939 47.8435 80.3939 48.1C80.3939 48.3565 80.4444 48.6105 80.5426 48.8475C80.6408 49.0845 80.7846 49.2998 80.966 49.4812L81.3113 49.8263L68.8066 62.3312C68.4404 62.6975 68.2346 63.1943 68.2346 63.7123C68.2346 64.2303 68.4404 64.7271 68.8067 65.0934C69.173 65.4596 69.6698 65.6654 70.1879 65.6654C70.7059 65.6654 71.2027 65.4596 71.5689 65.0933L95.1684 41.4937C95.7732 40.8921 96.2527 40.1766 96.5791 39.3885C96.9056 38.6005 97.0724 37.7555 97.0701 36.9025Z" fill="#FDCA01"/>
<path id="Vector_3" d="M77.2685 44.9743C77.6548 44.9743 78.0324 44.8598 78.3536 44.6452C78.6748 44.4306 78.9252 44.1256 79.073 43.7687C79.2209 43.4118 79.2596 43.0191 79.1842 42.6402C79.1089 42.2613 78.9229 41.9133 78.6497 41.6401L76.9232 39.9135C76.7418 39.7322 76.5264 39.5883 76.2894 39.4902C76.0525 39.392 75.7985 39.3415 75.542 39.3415C75.2855 39.3416 75.0315 39.3921 74.7945 39.4903C74.5575 39.5884 74.3422 39.7323 74.1609 39.9137C73.9795 40.0951 73.8356 40.3104 73.7375 40.5474C73.6393 40.7844 73.5888 41.0384 73.5889 41.2949C73.5889 41.5514 73.6394 41.8054 73.7376 42.0424C73.8358 42.2794 73.9797 42.4947 74.161 42.676L75.8874 44.4022C76.0686 44.5839 76.2838 44.7279 76.5208 44.8261C76.7578 44.9244 77.0119 44.9746 77.2685 44.9743ZM57.289 25.8038C57.6553 26.1701 58.1521 26.3759 58.6701 26.3759C59.1882 26.3759 59.685 26.1701 60.0513 25.8038C60.4176 25.4375 60.6234 24.9406 60.6234 24.4226C60.6234 23.9046 60.4176 23.4078 60.0513 23.0415L58.3247 21.3153C57.9579 20.9517 57.4619 20.7481 56.9454 20.7493C56.4289 20.7504 55.9339 20.9561 55.5686 21.3213C55.2034 21.6866 54.9977 22.1816 54.9966 22.6981C54.9955 23.2146 55.199 23.7106 55.5626 24.0774L57.289 25.8038Z" fill="#FDCA01"/>
</g>
</g>
</svg>
