<svg width="100" height="100" viewBox="0 0 100 100" fill="none" xmlns="http://www.w3.org/2000/svg">
<g id="Frame">
<g id="Group">
<path id="Vector" d="M51.6662 51.6216C51.5386 51.4553 51.3744 51.3205 51.1863 51.2278C50.9982 51.1351 50.7913 51.0868 50.5816 51.0869H31.2397C30.9387 51.0869 30.6462 51.1862 30.4074 51.3694C30.1687 51.5526 29.997 51.8095 29.9191 52.1001L29.4184 53.9695C28.9845 53.9341 28.5488 53.9258 28.1139 53.9447C26.4479 52.9455 26.2121 51.9607 26.2121 51.1203V48.3273C30.4647 45.0945 32.7918 39.088 32.6125 33.5544C32.4971 29.9871 31.3922 26.8925 29.418 24.6048C27.157 21.9853 23.859 20.6007 19.8803 20.6007C15.9016 20.6007 12.6035 21.9853 10.3426 24.6048C8.36817 26.8925 7.26349 29.9873 7.14806 33.5544C6.96876 39.088 9.29591 45.0945 13.5486 48.3273V51.1201C13.5486 51.9603 13.3129 52.9453 11.6469 53.9445C8.05509 53.7857 4.61114 55.5 2.57911 58.4916C0.463877 61.6052 0.19708 65.6306 1.88263 68.9964C1.91915 69.0693 1.96192 69.1388 2.01075 69.2039L2.79903 70.2564L4.18263 97.3332C4.2005 97.6832 4.35216 98.0131 4.60627 98.2545C4.86038 98.496 5.19752 98.6306 5.54806 98.6306H35.732C36.0946 98.6306 36.4424 98.4866 36.6988 98.2302C36.9552 97.9738 37.0992 97.626 37.0992 97.2634V82.1275H42.9969C43.2978 82.1274 43.5904 82.0281 43.8292 81.8449C44.0679 81.6617 44.2396 81.4049 44.3176 81.1142L51.9022 52.8074C51.9564 52.6048 51.9634 52.3925 51.9225 52.1868C51.8816 51.9811 51.7939 51.7876 51.6662 51.6212V51.6216ZM9.88048 33.6431C9.9588 31.225 10.9113 23.3353 19.8799 23.3353C28.8484 23.3353 29.801 31.2251 29.8793 33.6431C29.9891 37.0334 29.0231 40.5324 27.2287 43.2429C25.9033 45.2449 23.5559 47.6781 19.8801 47.9525C16.2043 47.6781 13.8567 45.2449 12.5315 43.2429C10.7371 40.5324 9.77091 37.0334 9.88087 33.6431H9.88048ZM19.7914 50.6874C19.8503 50.6914 19.9095 50.6914 19.9684 50.6874C21.1731 50.6114 22.3578 50.3425 23.4774 49.891V51.1203C23.4774 52.7146 24.0801 54.0853 25.2744 55.2152C22.8303 56.3251 20.2885 56.3679 18.8274 56.266C17.0559 56.1417 15.5367 55.7376 14.4358 55.2615C15.6627 54.1226 16.2824 52.7363 16.2824 51.1203V49.891C17.402 50.3424 18.5867 50.6114 19.7914 50.6874ZM4.84044 60.0285C6.32267 57.8462 8.82286 56.5874 11.441 56.6749C13.141 57.9769 16.3904 59.049 19.9465 59.049C22.725 59.049 25.6895 58.3912 28.2447 56.6798C28.3943 56.6734 28.5439 56.6713 28.6936 56.6736L25.1621 69.8533L19.2385 73.6548L15.3746 66.1341C15.2089 65.8116 14.9218 65.5681 14.5766 65.4572C14.2313 65.3464 13.8561 65.3772 13.5336 65.5429C13.2111 65.7086 12.9676 65.9957 12.8567 66.341C12.7458 66.6862 12.7767 67.0614 12.9424 67.3839L17.4942 76.2433C17.5813 76.4128 17.7029 76.5622 17.8511 76.682C17.9994 76.8017 18.171 76.8891 18.355 76.9387C18.5391 76.9882 18.7314 76.9987 18.9197 76.9695C19.1081 76.9404 19.2882 76.8722 19.4486 76.7693L27.535 71.5794C28.3063 71.0847 29.2346 71.0876 30.018 71.5886C30.6496 71.9921 31.2707 72.8142 31.1193 73.9107C31.0295 74.5617 30.7277 75.0666 30.1969 75.4541L20.9443 82.207C18.8834 83.7115 15.9627 83.2734 14.4334 81.2312L4.27521 67.6673C3.69243 66.4561 3.43792 65.113 3.53711 63.7725C3.6363 62.4319 4.08573 61.1408 4.84044 60.0285ZM34.3649 95.8968H6.84669L5.73692 74.1806L12.2447 82.8705C13.6949 84.807 15.9348 85.8324 18.1996 85.8324C19.7174 85.8324 21.2467 85.3716 22.5563 84.4158L25.6906 82.1281H34.3647V95.8968H34.3649ZM41.9479 79.3937H29.4371L31.809 77.6626C32.9387 76.8378 33.6369 75.6699 33.8279 74.2845C34.1024 72.2974 33.2066 70.3816 31.4906 69.2845C30.5264 68.6681 29.4307 68.4062 28.3568 68.4951L32.2887 53.8212H48.8L41.9479 79.3937ZM43.2998 29.7363L41.2611 37.3441C41.1832 37.6348 41.2033 37.9432 41.3185 38.2213C41.4336 38.4994 41.6374 38.7318 41.8981 38.8823C42.1587 39.0328 42.4618 39.0931 42.7603 39.0538C43.0587 39.0144 43.3358 38.8777 43.5486 38.6648L49.6098 32.6037C51.1686 32.9875 52.7683 33.1808 54.3736 33.1792C58.3666 33.1792 62.057 32.0003 65.0311 30.0119C68.0981 32.0587 71.8457 33.1792 75.6984 33.1792C77.3174 33.1792 78.9162 32.9859 80.4625 32.6037L86.5234 38.6648C86.7362 38.8777 87.0134 39.0143 87.3118 39.0536C87.6102 39.0929 87.9132 39.0326 88.1738 38.882C88.4345 38.7315 88.6381 38.4992 88.7533 38.2211C88.8685 37.9431 88.8888 37.6348 88.811 37.3441L86.7723 29.7363C91.0119 26.7292 93.5137 22.1384 93.5137 17.274C93.5137 8.50405 85.5219 1.3689 75.6984 1.3689C71.8457 1.3689 68.0983 2.4894 65.0311 4.53628C62.057 2.5478 58.3666 1.3689 54.3734 1.3689C44.5502 1.3689 36.5584 8.50386 36.5584 17.274C36.5584 22.1384 39.0602 26.7292 43.2998 29.7363ZM75.6983 4.10327C84.0139 4.10327 90.7791 10.0117 90.7791 17.274C90.7791 21.5068 88.4213 25.5109 84.4721 27.9849C84.2241 28.1401 84.0325 28.3708 83.9254 28.643C83.8184 28.9153 83.8014 29.2147 83.8772 29.4972L84.8488 33.123L81.8369 30.1109C81.6635 29.9374 81.4465 29.8139 81.2089 29.7531C80.9712 29.6923 80.7216 29.6965 80.4861 29.7654C78.9461 30.2162 77.3352 30.4447 75.6983 30.4447C72.6936 30.4447 69.7713 29.6574 67.2992 28.208C70.3279 25.3556 72.1887 21.5052 72.1887 17.274C72.1887 13.0427 70.3279 9.19253 67.2992 6.34019C69.7713 4.89077 72.6934 4.10327 75.6983 4.10327ZM54.3734 4.10327C62.6891 4.10327 69.4543 10.0117 69.4543 17.274C69.4543 24.5363 62.6889 30.4449 54.3734 30.4449C52.7365 30.4449 51.1258 30.2164 49.5858 29.7656C49.3503 29.6967 49.1007 29.6925 48.863 29.7533C48.6254 29.814 48.4084 29.9376 48.235 30.1111L45.2231 33.1232L46.1945 29.4974C46.2703 29.2148 46.2534 28.9154 46.1463 28.6432C46.0393 28.371 45.8477 28.1402 45.5998 27.9849C41.6504 25.5111 39.2928 21.507 39.2928 17.2742C39.2928 10.0119 46.058 4.10327 54.3734 4.10327ZM45.4156 11.5929C45.4156 11.2303 45.5597 10.8826 45.8161 10.6262C46.0725 10.3698 46.4202 10.2257 46.7828 10.2257H61.7383C61.9178 10.2257 62.0956 10.2611 62.2615 10.3298C62.4274 10.3985 62.5781 10.4992 62.705 10.6262C62.832 10.7531 62.9327 10.9038 63.0014 11.0697C63.0701 11.2356 63.1055 11.4134 63.1055 11.5929C63.1055 11.7725 63.0701 11.9502 63.0014 12.1161C62.9327 12.282 62.832 12.4327 62.705 12.5597C62.5781 12.6866 62.4274 12.7873 62.2615 12.856C62.0956 12.9247 61.9178 12.9601 61.7383 12.9601H46.7828C46.4202 12.9601 46.0725 12.8161 45.8161 12.5597C45.5597 12.3033 45.4156 11.9555 45.4156 11.5929ZM45.4156 17.274C45.4156 16.9114 45.5597 16.5636 45.8161 16.3072C46.0725 16.0508 46.4202 15.9068 46.7828 15.9068H61.7383C62.1009 15.9068 62.4486 16.0508 62.705 16.3072C62.9614 16.5636 63.1055 16.9114 63.1055 17.274C63.1055 17.6366 62.9614 17.9843 62.705 18.2407C62.4486 18.4971 62.1009 18.6412 61.7383 18.6412H46.7828C46.4202 18.6412 46.0725 18.4971 45.8161 18.2407C45.5597 17.9843 45.4156 17.6366 45.4156 17.274ZM45.4156 22.9552C45.4156 22.5926 45.5597 22.2449 45.8161 21.9885C46.0725 21.7321 46.4202 21.588 46.7828 21.588H61.7383C62.1009 21.588 62.4486 21.7321 62.705 21.9885C62.9614 22.2449 63.1055 22.5926 63.1055 22.9552C63.1055 23.3178 62.9614 23.6656 62.705 23.922C62.4486 24.1784 62.1009 24.3224 61.7383 24.3224H46.7828C46.4202 24.3224 46.0725 24.1784 45.8161 23.922C45.5597 23.6656 45.4156 23.3178 45.4156 22.9552ZM85.468 17.274C85.468 16.9114 85.612 16.5636 85.8684 16.3072C86.1248 16.0508 86.4726 15.9068 86.8352 15.9068H87.3608C87.7234 15.9068 88.0711 16.0508 88.3275 16.3072C88.5839 16.5636 88.7279 16.9114 88.7279 17.274C88.7279 17.6366 88.5839 17.9843 88.3275 18.2407C88.0711 18.4971 87.7234 18.6412 87.3608 18.6412H86.8352C86.4726 18.6412 86.1248 18.4971 85.8684 18.2407C85.612 17.9843 85.468 17.6366 85.468 17.274ZM79.5992 17.274C79.5992 16.9114 79.7433 16.5636 79.9997 16.3072C80.2561 16.0508 80.6038 15.9068 80.9664 15.9068H81.4918C81.8544 15.9068 82.2022 16.0508 82.4586 16.3072C82.715 16.5636 82.859 16.9114 82.859 17.274C82.859 17.6366 82.715 17.9843 82.4586 18.2407C82.2022 18.4971 81.8544 18.6412 81.4918 18.6412H80.9664C80.6038 18.6412 80.2561 18.4971 79.9997 18.2407C79.7433 17.9843 79.5992 17.6366 79.5992 17.274ZM73.7305 17.274C73.7305 16.9114 73.8745 16.5636 74.1309 16.3072C74.3873 16.0508 74.7351 15.9068 75.0977 15.9068H75.6231C75.9857 15.9068 76.3334 16.0508 76.5898 16.3072C76.8462 16.5636 76.9902 16.9114 76.9902 17.274C76.9902 17.6366 76.8462 17.9843 76.5898 18.2407C76.3334 18.4971 75.9857 18.6412 75.6231 18.6412H75.0977C74.7351 18.6412 74.3873 18.4971 74.1309 18.2407C73.8745 17.9843 73.7305 17.6366 73.7305 17.274ZM99.2127 97.1414C98.6088 90.4388 95.5371 84.2304 90.5629 79.6597C87.2502 76.6158 83.2813 74.4781 79.0039 73.3796C83.0971 71.0306 85.8621 66.6189 85.8621 61.5705C85.8621 54.0664 79.7572 47.9615 72.2531 47.9615C64.749 47.9615 58.6441 54.0664 58.6441 61.5705C58.6441 66.6187 61.4092 71.0304 65.5024 73.3796C61.225 74.4781 57.2561 76.6158 53.9434 79.6599C48.9693 84.2302 45.8975 90.4388 45.2936 97.1414C45.2592 97.5238 45.3871 97.9029 45.6461 98.1865C45.9051 98.4701 46.2713 98.6312 46.6553 98.6312H97.851C98.0409 98.6312 98.2287 98.5917 98.4025 98.5151C98.5762 98.4386 98.7322 98.3266 98.8603 98.1865C98.9884 98.0463 99.0859 97.881 99.1466 97.701C99.2072 97.5211 99.2298 97.3305 99.2127 97.1414ZM61.3787 61.5707C61.3787 55.5744 66.257 50.696 72.2533 50.696C78.2496 50.696 83.1279 55.5744 83.1279 61.5707C83.1279 67.5669 78.2496 72.4453 72.2533 72.4453C66.257 72.4453 61.3787 67.5669 61.3787 61.5707ZM48.1963 95.8968C49.9863 84.0326 60.0774 75.2625 72.2533 75.2625C84.4293 75.2625 94.5205 84.0326 96.3102 95.8968H48.1963Z" fill="#FDCA01"/>
</g>
</g>
</svg>
