<svg width="100" height="100" viewBox="0 0 100 100" fill="none" xmlns="http://www.w3.org/2000/svg">
<g id="Frame" clip-path="url(#clip0_150_358)">
<g id="Group">
<g id="Layer 2">
<path id="Vector" d="M83.9996 44.3L72.8396 55.456L67.9996 50.584C67.624 50.209 67.1149 49.9985 66.5842 49.9989C66.0534 49.9993 65.5446 50.2105 65.1696 50.586C64.7946 50.9616 64.5841 51.4707 64.5845 52.0014C64.5848 52.5322 64.796 53.041 65.1716 53.416L71.4556 59.7C71.8306 60.075 72.3393 60.2856 72.8696 60.2856C73.3999 60.2856 73.9085 60.075 74.2836 59.7L86.8596 47.128C87.0506 46.9435 87.203 46.7228 87.3078 46.4788C87.4126 46.2348 87.4678 45.9724 87.4701 45.7068C87.4724 45.4413 87.4218 45.1779 87.3212 44.9321C87.2207 44.6863 87.0722 44.463 86.8844 44.2752C86.6966 44.0875 86.4733 43.9389 86.2275 43.8384C85.9817 43.7378 85.7183 43.6872 85.4528 43.6895C85.1872 43.6918 84.9248 43.747 84.6808 43.8518C84.4368 43.9566 84.2161 44.109 84.0316 44.3H83.9996Z" fill="#FDCA01"/>
<path id="Vector_2" d="M100 52C99.9895 46.3338 97.9765 40.8537 94.3168 36.5279C90.6571 32.2021 85.5862 29.3091 80 28.36V18C80.0005 17.7372 79.9491 17.4768 79.8489 17.2339C79.7487 16.9909 79.6016 16.7701 79.416 16.584L63.416 0.584003C63.2299 0.398396 63.0091 0.251283 62.7661 0.151077C62.5232 0.0508698 62.2628 -0.000466199 62 3.18998e-06H14C13.4696 3.18998e-06 12.9609 0.210717 12.5858 0.58579C12.2107 0.960862 12 1.46957 12 2V12H2C1.46957 12 0.960859 12.2107 0.585786 12.5858C0.210714 12.9609 0 13.4696 0 14V98C0 98.5304 0.210714 99.0391 0.585786 99.4142C0.960859 99.7893 1.46957 100 2 100H70C70.5304 100 71.0391 99.7893 71.4142 99.4142C71.7893 99.0391 72 98.5304 72 98V88H78C78.5304 88 79.0391 87.7893 79.4142 87.4142C79.7893 87.0391 80 86.5304 80 86V75.64C85.5862 74.6909 90.6571 71.7979 94.3168 67.4721C97.9765 63.1463 99.9895 57.6662 100 52ZM64 6.828L73.172 16H64V6.828ZM68 96H4V16H12V86C12 86.5304 12.2107 87.0391 12.5858 87.4142C12.9609 87.7893 13.4696 88 14 88H68V96ZM76 84H16V4H60V18C60 18.5304 60.2107 19.0391 60.5858 19.4142C60.9609 19.7893 61.4696 20 62 20H76V28C69.6348 28 63.5303 30.5286 59.0294 35.0294C54.5286 39.5303 52 45.6348 52 52C52 58.3652 54.5286 64.4697 59.0294 68.9706C63.5303 73.4714 69.6348 76 76 76V84ZM76 72C72.0444 72 68.1776 70.827 64.8886 68.6294C61.5996 66.4318 59.0362 63.3082 57.5224 59.6537C56.0087 55.9992 55.6126 51.9778 56.3843 48.0982C57.156 44.2186 59.0608 40.6549 61.8579 37.8579C64.6549 35.0608 68.2186 33.156 72.0982 32.3843C75.9778 31.6126 79.9991 32.0087 83.6537 33.5224C87.3082 35.0362 90.4318 37.5996 92.6294 40.8886C94.827 44.1776 96 48.0444 96 52C95.9937 57.3024 93.8845 62.3858 90.1351 66.1351C86.3858 69.8845 81.3024 71.9937 76 72Z" fill="#FDCA01"/>
<path id="Vector_3" d="M35.9998 48.584L29.8078 54.8L27.4078 52.4C27.0328 52.0245 26.524 51.8133 25.9932 51.8129C25.4625 51.8125 24.9534 52.023 24.5778 52.398C24.2023 52.773 23.9911 53.2819 23.9907 53.8126C23.9903 54.3433 24.2008 54.8525 24.5758 55.228L28.3878 59.036C28.7629 59.4109 29.2715 59.6216 29.8018 59.6216C30.3322 59.6216 30.8408 59.4109 31.2158 59.036L38.8358 51.436C39.2114 51.061 39.4226 50.5521 39.4229 50.0214C39.4233 49.4907 39.2129 48.9815 38.8378 48.606C38.4628 48.2304 37.954 48.0193 37.4232 48.0189C36.8925 48.0185 36.3834 48.229 36.0078 48.604L35.9998 48.584ZM35.9998 64.584L29.8078 70.8L27.4078 68.4C27.2221 68.214 27.0016 68.0665 26.7589 67.9657C26.5162 67.865 26.256 67.8131 25.9932 67.8129C25.7305 67.8127 25.4702 67.8643 25.2273 67.9647C24.9845 68.0651 24.7638 68.2123 24.5778 68.398C24.3919 68.5837 24.2443 68.8042 24.1436 69.0469C24.0429 69.2896 23.9909 69.5498 23.9907 69.8126C23.9905 70.0754 24.0421 70.3356 24.1425 70.5785C24.2429 70.8213 24.3901 71.042 24.5758 71.228L28.3878 75.036C28.7629 75.4109 29.2715 75.6216 29.8018 75.6216C30.3322 75.6216 30.8408 75.4109 31.2158 75.036L38.8358 67.436C39.2114 67.061 39.4226 66.5521 39.4229 66.0214C39.4233 65.4907 39.2129 64.9815 38.8378 64.606C38.4628 64.2305 37.954 64.0193 37.4232 64.0189C36.8925 64.0185 36.3834 64.229 36.0078 64.604L35.9998 64.584ZM25.9998 16H49.9998C50.5303 16 51.039 15.7893 51.414 15.4142C51.7891 15.0391 51.9998 14.5304 51.9998 14C51.9998 13.4696 51.7891 12.9609 51.414 12.5858C51.039 12.2107 50.5303 12 49.9998 12H25.9998C25.4694 12 24.9607 12.2107 24.5856 12.5858C24.2105 12.9609 23.9998 13.4696 23.9998 14C23.9998 14.5304 24.2105 15.0391 24.5856 15.4142C24.9607 15.7893 25.4694 16 25.9998 16ZM49.9998 24H25.9998C25.4694 24 24.9607 24.2107 24.5856 24.5858C24.2105 24.9609 23.9998 25.4696 23.9998 26C23.9998 26.5304 24.2105 27.0391 24.5856 27.4142C24.9607 27.7893 25.4694 28 25.9998 28H49.9998C50.5303 28 51.039 27.7893 51.414 27.4142C51.7891 27.0391 51.9998 26.5304 51.9998 26C51.9998 25.4696 51.7891 24.9609 51.414 24.5858C51.039 24.2107 50.5303 24 49.9998 24ZM37.9998 36H25.9998C25.4694 36 24.9607 36.2107 24.5856 36.5858C24.2105 36.9609 23.9998 37.4696 23.9998 38C23.9998 38.5304 24.2105 39.0391 24.5856 39.4142C24.9607 39.7893 25.4694 40 25.9998 40H37.9998C38.5303 40 39.039 39.7893 39.414 39.4142C39.7891 39.0391 39.9998 38.5304 39.9998 38C39.9998 37.4696 39.7891 36.9609 39.414 36.5858C39.039 36.2107 38.5303 36 37.9998 36Z" fill="#FDCA01"/>
</g>
</g>
</g>
<defs>
<clipPath id="clip0_150_358">
<rect width="100" height="100" fill="white"/>
</clipPath>
</defs>
</svg>
