<svg width="100" height="100" viewBox="0 0 100 100" fill="none" xmlns="http://www.w3.org/2000/svg">
<g clip-path="url(#clip0_150_103)">
<path d="M41.8391 84.0437C41.4051 81.87 40.5099 79.8146 39.2139 78.0162C37.918 76.2178 36.2514 74.7183 34.3266 73.6188C32.4763 72.5676 30.4965 71.7629 28.4376 71.225C30.2729 69.847 31.6282 67.9265 32.3117 65.7355C32.9951 63.5446 32.972 61.1941 32.2457 59.017C31.5193 56.8399 30.1265 54.9464 28.2644 53.6047C26.4024 52.263 24.1655 51.541 21.8704 51.541C19.5753 51.541 17.3383 52.263 15.4763 53.6047C13.6142 54.9464 12.2214 56.8399 11.4951 59.017C10.7687 61.1941 10.7456 63.5446 11.4291 65.7355C12.1125 67.9265 13.4678 69.847 15.3032 71.225C13.2459 71.7633 11.2677 72.568 9.4188 73.6188C7.49426 74.7182 5.82784 76.2175 4.5319 78.0156C3.23596 79.8137 2.34063 81.8687 1.9063 84.0422L0.0313017 93.4375C-0.0412676 93.799 0.016324 94.1745 0.193892 94.4976C0.37146 94.8207 0.657565 95.0706 1.00161 95.2031C14.4361 100.378 29.314 100.378 42.7485 95.2031C43.0925 95.0706 43.3786 94.8207 43.5562 94.4976C43.7338 94.1745 43.7914 93.799 43.7188 93.4375L41.8391 84.0437ZM14.0626 62.5C14.0626 60.9548 14.5207 59.4444 15.3792 58.1596C16.2376 56.8748 17.4578 55.8735 18.8853 55.2822C20.3129 54.6909 21.8837 54.5362 23.3992 54.8376C24.9147 55.1391 26.3067 55.8831 27.3993 56.9757C28.4919 58.0683 29.236 59.4604 29.5374 60.9759C29.8389 62.4913 29.6842 64.0622 29.0929 65.4897C28.5016 66.9173 27.5002 68.1374 26.2154 68.9959C24.9307 69.8543 23.4202 70.3125 21.8751 70.3125C19.8038 70.31 17.8181 69.4861 16.3535 68.0215C14.8889 66.5569 14.065 64.5712 14.0626 62.5ZM3.35474 92.7484L4.97505 84.6547C5.32164 82.9193 6.03644 81.2784 7.07122 79.8428C8.10601 78.4072 9.4367 77.2103 10.9735 76.3328C14.3051 74.4706 18.0583 73.4929 21.8751 73.4929C25.6918 73.4929 29.445 74.4706 32.7766 76.3328C34.3136 77.2104 35.6445 78.4075 36.6793 79.8434C37.7141 81.2793 38.4288 82.9205 38.7751 84.6562L40.3954 92.7484C28.421 97.0376 15.3291 97.0376 3.35474 92.7484ZM99.9688 93.4375L98.0938 84.0375C97.6598 81.8637 96.7646 79.8083 95.4686 78.0099C94.1727 76.2115 92.5061 74.712 90.5813 73.6125C88.7292 72.5632 86.7478 71.7605 84.6876 71.225C86.5229 69.847 87.8782 67.9265 88.5617 65.7355C89.2451 63.5446 89.222 61.1941 88.4957 59.017C87.7693 56.8399 86.3765 54.9464 84.5144 53.6047C82.6524 52.263 80.4155 51.541 78.1204 51.541C75.8253 51.541 73.5883 52.263 71.7263 53.6047C69.8642 54.9464 68.4714 56.8399 67.7451 59.017C67.0187 61.1941 66.9956 63.5446 67.6791 65.7355C68.3625 67.9265 69.7178 69.847 71.5532 71.225C69.4958 71.7633 67.5177 72.568 65.6688 73.6188C63.7443 74.7182 62.0778 76.2175 60.7819 78.0156C59.486 79.8137 58.5906 81.8687 58.1563 84.0422L56.2813 93.4375C56.2087 93.799 56.2663 94.1745 56.4439 94.4976C56.6215 94.8207 56.9076 95.0706 57.2516 95.2031C70.6861 100.378 85.564 100.378 98.9985 95.2031C99.3425 95.0706 99.6286 94.8207 99.8062 94.4976C99.9838 94.1745 100.041 93.799 99.9688 93.4375ZM70.3126 62.5C70.3126 60.9548 70.7707 59.4444 71.6292 58.1596C72.4876 56.8748 73.7078 55.8735 75.1353 55.2822C76.5629 54.6909 78.1337 54.5362 79.6492 54.8376C81.1647 55.1391 82.5567 55.8831 83.6493 56.9757C84.7419 58.0683 85.486 59.4604 85.7874 60.9759C86.0889 62.4913 85.9342 64.0622 85.3429 65.4897C84.7515 66.9173 83.7502 68.1374 82.4654 68.9959C81.1807 69.8543 79.6702 70.3125 78.1251 70.3125C76.0538 70.31 74.0681 69.4861 72.6035 68.0215C71.1389 66.5569 70.315 64.5712 70.3126 62.5ZM59.6047 92.7484L61.2251 84.6547C61.5716 82.9193 62.2864 81.2784 63.3212 79.8428C64.356 78.4072 65.6867 77.2103 67.2235 76.3328C70.5551 74.4706 74.3083 73.4929 78.1251 73.4929C81.9418 73.4929 85.695 74.4706 89.0266 76.3328C90.5637 77.2104 91.8945 78.4075 92.9293 79.8434C93.9641 81.2793 94.6788 82.9205 95.0251 84.6562L96.6454 92.7484C84.671 97.0376 71.5791 97.0376 59.6047 92.7484ZM60.8407 37.4125L67.4329 47.725C67.5999 47.9869 67.8411 48.193 68.1258 48.3172C68.4105 48.4413 68.7257 48.4778 69.0312 48.422C69.3368 48.3661 69.6187 48.2205 69.8411 48.0037C70.0635 47.7869 70.2162 47.5087 70.2797 47.2047L72.5282 36.5312C84.3329 33.975 92.1876 26.9172 92.1876 18.75C92.1876 8.41094 79.2188 0 63.2813 0C47.3438 0 34.3751 8.41094 34.3751 18.75C34.3751 28.5125 45.9376 36.6094 60.8407 37.4125ZM63.2813 3.125C77.5001 3.125 89.0626 10.1344 89.0626 18.75C89.0626 25.4969 81.6016 31.6297 70.9204 33.6625C70.6175 33.72 70.3384 33.8658 70.1182 34.0815C69.898 34.2973 69.7465 34.5734 69.6829 34.875L68.0079 42.8125L63.0376 35.0406C62.9011 34.8275 62.7148 34.6508 62.4949 34.5256C62.275 34.4004 62.028 34.3305 61.7751 34.3219C48.1626 33.8422 37.5001 27 37.5001 18.75C37.5001 10.1344 49.0626 3.125 63.2813 3.125Z" fill="#FDCA01"/>
<path d="M59.3281 40.5829C59.2781 40.3839 59.1893 40.1966 59.0669 40.0319C58.9445 39.8671 58.7908 39.7281 58.6147 39.6228C58.4385 39.5174 58.2434 39.4478 58.0403 39.4179C57.8372 39.388 57.6303 39.3984 57.4313 39.4486C52.3659 40.6988 47.1076 40.964 41.9422 40.2298C41.5744 40.1763 41.1997 40.2579 40.8875 40.4595L33.5938 45.0939L34.7437 39.9157C34.8246 39.552 34.7729 39.1714 34.5978 38.8425C34.4228 38.5136 34.1359 38.2581 33.7891 38.122C26.3297 35.197 21.875 30.2907 21.875 25.0001C21.875 19.8048 26.1844 14.9486 33.4016 12.0111C33.5917 11.9337 33.7647 11.8197 33.9107 11.6754C34.0568 11.5312 34.1729 11.3596 34.2527 11.1705C34.3324 10.9814 34.3741 10.7784 34.3754 10.5732C34.3767 10.3679 34.3375 10.1645 34.2602 9.97434C34.1828 9.78423 34.0688 9.61122 33.9245 9.46519C33.7803 9.31915 33.6087 9.20295 33.4196 9.12323C33.2305 9.0435 33.0275 9.0018 32.8223 9.00052C32.617 8.99924 32.4135 9.03839 32.2234 9.11575C23.7875 12.5501 18.75 18.4892 18.75 25.0001C18.75 31.3048 23.4547 37.0314 31.4063 40.5173L29.7203 48.0986C29.6528 48.4005 29.6765 48.7157 29.7883 49.0041C29.9002 49.2926 30.0951 49.5414 30.3485 49.7189C30.6018 49.8965 30.9022 49.9948 31.2115 50.0015C31.5208 50.0082 31.8252 49.9228 32.0859 49.7564L42.0859 43.3939C47.4655 44.0905 52.9278 43.78 58.1937 42.4782C58.5954 42.3772 58.9405 42.1208 59.1533 41.7654C59.366 41.41 59.4289 40.9847 59.3281 40.5829ZM53.125 10.9376H60.9375V14.0626H53.125V10.9376ZM64.0625 10.9376H67.1875V14.0626H64.0625V10.9376ZM70.3125 10.9376H78.125V14.0626H70.3125V10.9376ZM48.4375 17.1876H67.1875V20.3126H48.4375V17.1876ZM70.3125 17.1876H78.125V20.3126H70.3125V17.1876ZM48.4375 23.4376H54.6875V26.5626H48.4375V23.4376ZM57.8125 23.4376H75V26.5626H57.8125V23.4376Z" fill="#FDCA01"/>
</g>
<defs>
<clipPath id="clip0_150_103">
<rect width="100" height="100" fill="white"/>
</clipPath>
</defs>
</svg>
