<svg width="100" height="100" viewBox="0 0 100 100" fill="none" xmlns="http://www.w3.org/2000/svg">
<g id="Frame" clip-path="url(#clip0_150_377)">
<g id="Group">
<g id="Group_2">
<path id="Vector" d="M95 43.3333H90C88.9696 43.3376 87.9656 43.6601 87.1255 44.2568C86.2854 44.8535 85.6501 45.6952 85.3067 46.6667H84.0333C81.0998 46.5339 78.2265 45.7884 75.5983 44.4783L65 40.4017V5C65 3.67392 64.4732 2.40215 63.5355 1.46447C62.5978 0.526784 61.3261 0 60 0L18.3333 0C17.9 0.0166667 17.485 0.186667 17.1667 0.483333L0.5 17.15V17.1583C0.19702 17.4768 0.0194347 17.8942 0 18.3333L0 95C0 96.3261 0.526784 97.5978 1.46447 98.5355C2.40215 99.4732 3.67392 100 5 100H60C61.3261 100 62.5978 99.4732 63.5355 98.5355C64.4732 97.5978 65 96.3261 65 95V91.3983C68.286 90.9191 71.4172 89.6883 74.15 87.8017C75.2433 87.0513 76.5407 86.6551 77.8667 86.6667H85.3067C85.6501 87.6382 86.2854 88.4798 87.1255 89.0765C87.9656 89.6732 88.9696 89.9957 90 90H95C96.3261 90 97.5978 89.4732 98.5355 88.5355C99.4732 87.5978 100 86.3261 100 85V48.3333C100 47.0072 99.4732 45.7355 98.5355 44.7978C97.5978 43.8601 96.3261 43.3333 95 43.3333ZM16.6667 5.69V15C16.6667 15.442 16.4911 15.8659 16.1785 16.1785C15.8659 16.4911 15.442 16.6667 15 16.6667H5.69L16.6667 5.69ZM72.2483 85.065C70.0693 86.5531 67.5984 87.5604 65 88.02V73.3333C65 72.8913 64.8244 72.4674 64.5118 72.1548C64.1993 71.8423 63.7754 71.6667 63.3333 71.6667C62.8913 71.6667 62.4674 71.8423 62.1548 72.1548C61.8423 72.4674 61.6667 72.8913 61.6667 73.3333V95C61.6667 95.442 61.4911 95.866 61.1785 96.1785C60.866 96.4911 60.442 96.6667 60 96.6667H5C4.55797 96.6667 4.13405 96.4911 3.82149 96.1785C3.50893 95.866 3.33333 95.442 3.33333 95V20H15C16.3261 20 17.5979 19.4732 18.5355 18.5355C19.4732 17.5979 20 16.3261 20 15V3.33333H60C60.442 3.33333 60.866 3.50893 61.1785 3.82149C61.4911 4.13405 61.6667 4.55797 61.6667 5V39.12L55.535 36.7617C53.6881 36.1137 51.6613 36.2113 49.8852 37.0338C48.1091 37.8564 46.7237 39.339 46.0233 41.1667L39.5633 58.15C39.211 59.07 39.0432 60.0504 39.0698 61.0353C39.0963 62.0201 39.3165 62.9901 39.7179 63.8898C40.5285 65.7069 42.0278 67.1275 43.8858 67.8392C45.7439 68.5508 47.8086 68.4952 49.6256 67.6846C50.5254 67.2832 51.3372 66.7086 52.0148 65.9934C52.6925 65.2783 53.2226 64.4367 53.575 63.5167L57 54.5333L61.3883 56.7317C60.9349 60.2645 61.7859 63.8415 63.7817 66.7917C64.9404 68.2314 66.3904 69.4099 68.0365 70.25C69.6825 71.0902 71.4876 71.5729 73.3333 71.6667C73.7565 71.6649 74.1632 71.5022 74.4708 71.2116C74.7785 70.921 74.9641 70.5243 74.9899 70.1019C75.0158 69.6795 74.88 69.2631 74.6101 68.9371C74.3402 68.6112 73.9565 68.4001 73.5367 68.3467C72.1747 68.2718 70.8427 67.9177 69.6233 67.3064C68.4039 66.6952 67.3232 65.8398 66.4483 64.7933C64.8058 62.1894 64.2253 59.0544 64.8267 56.035C64.8933 55.325 64.5433 54.64 63.9283 54.2767L56.845 50.7267C56.635 50.6332 56.4086 50.5823 56.1789 50.5769C55.9492 50.5715 55.7206 50.6116 55.5065 50.6949C55.2923 50.7783 55.0968 50.9033 54.9312 51.0626C54.7656 51.222 54.6332 51.4125 54.5417 51.6233L50.4567 62.3333C50.0613 63.3655 49.2721 64.1983 48.2626 64.6485C47.2532 65.0987 46.1063 65.1296 45.0742 64.7342C44.042 64.3388 43.2092 63.5496 42.759 62.5401C42.3088 61.5307 42.2779 60.3838 42.6733 59.3517L49.1467 42.3333C49.5472 41.338 50.3114 40.5323 51.2843 40.0797C52.2571 39.6272 53.3657 39.5618 54.385 39.8967L74.33 47.5633C77.3583 49.0433 80.6633 49.8733 84.0333 50H85V83.3333H77.8667C75.8607 83.321 73.8993 83.9255 72.2483 85.065ZM96.6667 85C96.6667 85.442 96.4911 85.866 96.1785 86.1785C95.866 86.4911 95.442 86.6667 95 86.6667H90C89.558 86.6667 89.134 86.4911 88.8215 86.1785C88.5089 85.866 88.3333 85.442 88.3333 85V48.3333C88.3333 47.8913 88.5089 47.4674 88.8215 47.1548C89.134 46.8423 89.558 46.6667 90 46.6667H95C95.442 46.6667 95.866 46.8423 96.1785 47.1548C96.4911 47.4674 96.6667 47.8913 96.6667 48.3333V85Z" fill="#FDCA01"/>
<path id="Vector_2" d="M11.6667 30.0001H21.6667C22.1087 30.0001 22.5326 29.8245 22.8452 29.5119C23.1577 29.1994 23.3333 28.7754 23.3333 28.3334C23.3333 27.8914 23.1577 27.4675 22.8452 27.1549C22.5326 26.8423 22.1087 26.6667 21.6667 26.6667H11.6667C11.2246 26.6667 10.8007 26.8423 10.4882 27.1549C10.1756 27.4675 10 27.8914 10 28.3334C10 28.7754 10.1756 29.1994 10.4882 29.5119C10.8007 29.8245 11.2246 30.0001 11.6667 30.0001ZM28.3333 30.0001H55C55.442 30.0001 55.866 29.8245 56.1785 29.5119C56.4911 29.1994 56.6667 28.7754 56.6667 28.3334C56.6667 27.8914 56.4911 27.4675 56.1785 27.1549C55.866 26.8423 55.442 26.6667 55 26.6667H28.3333C27.8913 26.6667 27.4674 26.8423 27.1548 27.1549C26.8423 27.4675 26.6667 27.8914 26.6667 28.3334C26.6667 28.7754 26.8423 29.1994 27.1548 29.5119C27.4674 29.8245 27.8913 30.0001 28.3333 30.0001ZM11.6667 38.3334H38.3333C38.7754 38.3334 39.1993 38.1578 39.5119 37.8453C39.8244 37.5327 40 37.1088 40 36.6667C40 36.2247 39.8244 35.8008 39.5119 35.4882C39.1993 35.1757 38.7754 35.0001 38.3333 35.0001H11.6667C11.2246 35.0001 10.8007 35.1757 10.4882 35.4882C10.1756 35.8008 10 36.2247 10 36.6667C10 37.1088 10.1756 37.5327 10.4882 37.8453C10.8007 38.1578 11.2246 38.3334 11.6667 38.3334ZM11.6667 46.6667H21.6667C22.1087 46.6667 22.5326 46.4912 22.8452 46.1786C23.1577 45.866 23.3333 45.4421 23.3333 45.0001C23.3333 44.5581 23.1577 44.1341 22.8452 43.8216C22.5326 43.509 22.1087 43.3334 21.6667 43.3334H11.6667C11.2246 43.3334 10.8007 43.509 10.4882 43.8216C10.1756 44.1341 10 44.5581 10 45.0001C10 45.4421 10.1756 45.866 10.4882 46.1786C10.8007 46.4912 11.2246 46.6667 11.6667 46.6667ZM39.2167 43.3334H28.3333C27.8913 43.3334 27.4674 43.509 27.1548 43.8216C26.8423 44.1341 26.6667 44.5581 26.6667 45.0001C26.6667 45.4421 26.8423 45.866 27.1548 46.1786C27.4674 46.4912 27.8913 46.6667 28.3333 46.6667H39.2167C39.6587 46.6667 40.0826 46.4912 40.3952 46.1786C40.7077 45.866 40.8833 45.4421 40.8833 45.0001C40.8833 44.5581 40.7077 44.1341 40.3952 43.8216C40.0826 43.509 39.6587 43.3334 39.2167 43.3334ZM11.6667 55.0001H36.0333C36.4754 55.0001 36.8993 54.8245 37.2118 54.5119C37.5244 54.1994 37.7 53.7754 37.7 53.3334C37.7 52.8914 37.5244 52.4675 37.2118 52.1549C36.8993 51.8423 36.4754 51.6667 36.0333 51.6667H11.6667C11.2246 51.6667 10.8007 51.8423 10.4882 52.1549C10.1756 52.4675 10 52.8914 10 53.3334C10 53.7754 10.1756 54.1994 10.4882 54.5119C10.8007 54.8245 11.2246 55.0001 11.6667 55.0001ZM11.6667 63.3334H21.6667C22.1087 63.3334 22.5326 63.1578 22.8452 62.8453C23.1577 62.5327 23.3333 62.1088 23.3333 61.6667C23.3333 61.2247 23.1577 60.8008 22.8452 60.4882C22.5326 60.1757 22.1087 60.0001 21.6667 60.0001H11.6667C11.2246 60.0001 10.8007 60.1757 10.4882 60.4882C10.1756 60.8008 10 61.2247 10 61.6667C10 62.1088 10.1756 62.5327 10.4882 62.8453C10.8007 63.1578 11.2246 63.3334 11.6667 63.3334ZM28.3333 60.0001C27.8913 60.0001 27.4674 60.1757 27.1548 60.4882C26.8423 60.8008 26.6667 61.2247 26.6667 61.6667C26.6667 62.1088 26.8423 62.5327 27.1548 62.8453C27.4674 63.1578 27.8913 63.3334 28.3333 63.3334H34.1C34.542 63.3334 34.966 63.1578 35.2785 62.8453C35.5911 62.5327 35.7667 62.1088 35.7667 61.6667C35.7667 61.2247 35.5911 60.8008 35.2785 60.4882C34.966 60.1757 34.542 60.0001 34.1 60.0001H28.3333ZM11.6667 71.6668H38.0667C38.5087 71.6668 38.9326 71.4912 39.2452 71.1786C39.5577 70.866 39.7333 70.4421 39.7333 70.0001C39.7333 69.5581 39.5577 69.1341 39.2452 68.8216C38.9326 68.509 38.5087 68.3334 38.0667 68.3334H11.6667C11.2246 68.3334 10.8007 68.509 10.4882 68.8216C10.1756 69.1341 10 69.5581 10 70.0001C10 70.4421 10.1756 70.866 10.4882 71.1786C10.8007 71.4912 11.2246 71.6668 11.6667 71.6668ZM11.6667 80.0001H21.6667C22.1087 80.0001 22.5326 79.8245 22.8452 79.5119C23.1577 79.1994 23.3333 78.7754 23.3333 78.3334C23.3333 77.8914 23.1577 77.4675 22.8452 77.1549C22.5326 76.8423 22.1087 76.6668 21.6667 76.6668H11.6667C11.2246 76.6668 10.8007 76.8423 10.4882 77.1549C10.1756 77.4675 10 77.8914 10 78.3334C10 78.7754 10.1756 79.1994 10.4882 79.5119C10.8007 79.8245 11.2246 80.0001 11.6667 80.0001ZM55 76.6668H28.3333C27.8913 76.6668 27.4674 76.8423 27.1548 77.1549C26.8423 77.4675 26.6667 77.8914 26.6667 78.3334C26.6667 78.7754 26.8423 79.1994 27.1548 79.5119C27.4674 79.8245 27.8913 80.0001 28.3333 80.0001H55C55.442 80.0001 55.866 79.8245 56.1785 79.5119C56.4911 79.1994 56.6667 78.7754 56.6667 78.3334C56.6667 77.8914 56.4911 77.4675 56.1785 77.1549C55.866 76.8423 55.442 76.6668 55 76.6668ZM55 85.0001H45C44.558 85.0001 44.1341 85.1757 43.8215 85.4882C43.5089 85.8008 43.3333 86.2247 43.3333 86.6668C43.3333 87.1088 43.5089 87.5327 43.8215 87.8453C44.1341 88.1578 44.558 88.3334 45 88.3334H55C55.442 88.3334 55.866 88.1578 56.1785 87.8453C56.4911 87.5327 56.6667 87.1088 56.6667 86.6668C56.6667 86.2247 56.4911 85.8008 56.1785 85.4882C55.866 85.1757 55.442 85.0001 55 85.0001ZM38.3333 85.0001H11.6667C11.2246 85.0001 10.8007 85.1757 10.4882 85.4882C10.1756 85.8008 10 86.2247 10 86.6668C10 87.1088 10.1756 87.5327 10.4882 87.8453C10.8007 88.1578 11.2246 88.3334 11.6667 88.3334H38.3333C38.7754 88.3334 39.1993 88.1578 39.5119 87.8453C39.8244 87.5327 40 87.1088 40 86.6668C40 86.2247 39.8244 85.8008 39.5119 85.4882C39.1993 85.1757 38.7754 85.0001 38.3333 85.0001Z" fill="#FDCA01"/>
</g>
</g>
</g>
<defs>
<clipPath id="clip0_150_377">
<rect width="100" height="100" fill="white"/>
</clipPath>
</defs>
</svg>
