<svg width="100" height="100" viewBox="0 0 100 100" fill="none" xmlns="http://www.w3.org/2000/svg">
<g id="Frame" clip-path="url(#clip0_150_327)">
<g id="Group">
<g id="Group_2">
<path id="Vector" d="M98.3333 88.7966V49.9999C98.3287 49.7421 98.263 49.489 98.1417 49.2616H98.1583L94.0783 41.1032C93.6666 40.2695 93.0293 39.5681 92.2388 39.0784C91.4484 38.5888 90.5365 38.3306 89.6067 38.3332H78.3333V36.6666C78.3332 36.2246 78.1576 35.8007 77.845 35.4882L68.8217 26.4649C68.2219 25.8713 67.4799 25.4415 66.6667 25.2166V13.9749L70 13.0799V17.1282C69.9991 17.9709 70.2066 18.8006 70.6041 19.5436C71.0017 20.2866 71.5768 20.9197 72.2783 21.3866C72.6461 21.6319 73.0963 21.7211 73.5298 21.6345C73.9633 21.5479 74.3447 21.2927 74.59 20.9249C74.8353 20.5571 74.9245 20.107 74.8379 19.6734C74.7513 19.2399 74.4961 18.8585 74.1283 18.6132C73.8835 18.4506 73.6828 18.2298 73.5441 17.9707C73.4053 17.7116 73.3329 17.4221 73.3333 17.1282V12.0382C73.9038 11.7087 74.3639 11.2175 74.6554 10.6267C74.9469 10.0359 75.0568 9.37191 74.9712 8.71867C74.8856 8.06543 74.6084 7.45221 74.1745 6.95645C73.7406 6.46068 73.1695 6.10462 72.5333 5.93322L50.8567 0.113218C50.2954 -0.0367628 49.7046 -0.0367628 49.1433 0.113218L27.4667 5.93322C26.7575 6.12683 26.1317 6.54821 25.6855 7.13246C25.2394 7.71672 24.9977 8.43144 24.9977 9.16655C24.9977 9.90166 25.2394 10.6164 25.6855 11.2006C26.1317 11.7849 26.7575 12.2063 27.4667 12.3999L33.3333 13.9749V24.9999H33.2283C31.7467 24.9999 30.3417 25.6599 29.395 26.7999L22.0617 35.5999C21.809 35.8981 21.6692 36.2757 21.6667 36.6666V38.3332H10.3933C9.46423 38.33 8.5528 38.5871 7.76243 39.0756C6.97205 39.564 6.33436 40.2641 5.92167 41.0966L1.84167 49.2549H1.85833C1.73592 49.4844 1.6702 49.7398 1.66667 49.9999V88.7966C1.1616 89.0868 0.741737 89.5047 0.449204 90.0085C0.156672 90.5122 0.00175657 91.084 0 91.6666L0 94.9999C0 95.8839 0.35119 96.7318 0.976311 97.3569C1.60143 97.982 2.44928 98.3332 3.33333 98.3332H25.4633C26.0533 99.3616 27.1467 99.9966 28.3333 99.9999H71.6667C72.2492 99.9981 72.821 99.8432 73.3247 99.5507C73.8285 99.2582 74.2464 98.8383 74.5367 98.3332H96.6667C97.5507 98.3332 98.3986 97.982 99.0237 97.3569C99.6488 96.7318 100 95.8839 100 94.9999V91.6666C99.9982 91.084 99.8433 90.5122 99.5508 90.0085C99.2583 89.5047 98.8384 89.0868 98.3333 88.7966ZM73.3333 88.3332H71.6667V51.6666H95V88.3332H73.3333ZM55 88.3332H45V69.9999H55V88.3332ZM56.6667 66.6666H43.3333C42.8913 66.6666 42.4674 66.8421 42.1548 67.1547C41.8423 67.4673 41.6667 67.8912 41.6667 68.3332V88.3332H31.6667V51.6666H68.3333V88.3332H58.3333V68.3332C58.3333 67.8912 58.1577 67.4673 57.8452 67.1547C57.5326 66.8421 57.1087 66.6666 56.6667 66.6666ZM75 38.3332V41.6666H25V38.3332H75ZM71.6667 44.9999V48.3332H28.3333V44.9999H71.6667ZM89.6067 41.6666C89.9163 41.6656 90.2201 41.7514 90.4835 41.9143C90.7468 42.0772 90.9593 42.3107 91.0967 42.5882L93.97 48.3332H75V44.9999C75.8841 44.9999 76.7319 44.6487 77.357 44.0236C77.9821 43.3985 78.3333 42.5506 78.3333 41.6666H89.6067ZM50 3.33322L71.69 9.16655H71.6683L50.0083 14.9999L28.3333 9.15322L50 3.33322ZM36.6667 14.8699L49.1433 18.2199C49.705 18.3699 50.295 18.3699 50.8567 18.2199L63.3333 14.8699V24.9999H36.6667V14.8699ZM31.9483 28.9332C32.1047 28.7455 32.3004 28.5945 32.5216 28.4908C32.7428 28.3871 32.984 28.3333 33.2283 28.3332H65.285C65.5041 28.333 65.7211 28.3761 65.9236 28.4599C66.1261 28.5437 66.3101 28.6666 66.465 28.8216L72.6433 34.9999H26.8917L31.9483 28.9332ZM8.90333 42.5882C9.04073 42.3107 9.25316 42.0772 9.51653 41.9143C9.77989 41.7514 10.0837 41.6656 10.3933 41.6666H21.6667C21.6667 42.5506 22.0179 43.3985 22.643 44.0236C23.2681 44.6487 24.1159 44.9999 25 44.9999V48.3332H6.03L8.90333 42.5882ZM3.33333 91.6666H25V94.9999H3.33333V91.6666ZM26.6667 88.3332H5V51.6666H28.3333V88.3332H26.6667ZM28.3333 96.6666V91.6666H71.6667V96.6666H28.3333ZM96.6667 94.9999H75V91.6666H96.6667V94.9999Z" fill="#FDCA01"/>
<path id="Vector_2" d="M45 55C44.558 55 44.1341 55.1756 43.8215 55.4882C43.5089 55.8007 43.3333 56.2246 43.3333 56.6667V60C43.3333 60.442 43.5089 60.866 43.8215 61.1785C44.1341 61.4911 44.558 61.6667 45 61.6667C45.442 61.6667 45.866 61.4911 46.1785 61.1785C46.4911 60.866 46.6667 60.442 46.6667 60V56.6667C46.6667 56.2246 46.4911 55.8007 46.1785 55.4882C45.866 55.1756 45.442 55 45 55ZM21.6667 56.6667C21.2246 56.6667 20.8007 56.8423 20.4882 57.1548C20.1756 57.4674 20 57.8913 20 58.3333V61.6667C20 62.1087 20.1756 62.5326 20.4882 62.8452C20.8007 63.1577 21.2246 63.3333 21.6667 63.3333C22.1087 63.3333 22.5326 63.1577 22.8452 62.8452C23.1577 62.5326 23.3333 62.1087 23.3333 61.6667V58.3333C23.3333 57.8913 23.1577 57.4674 22.8452 57.1548C22.5326 56.8423 22.1087 56.6667 21.6667 56.6667ZM11.6667 56.6667C11.2246 56.6667 10.8007 56.8423 10.4882 57.1548C10.1756 57.4674 10 57.8913 10 58.3333V61.6667C10 62.1087 10.1756 62.5326 10.4882 62.8452C10.8007 63.1577 11.2246 63.3333 11.6667 63.3333C12.1087 63.3333 12.5326 63.1577 12.8452 62.8452C13.1577 62.5326 13.3333 62.1087 13.3333 61.6667V58.3333C13.3333 57.8913 13.1577 57.4674 12.8452 57.1548C12.5326 56.8423 12.1087 56.6667 11.6667 56.6667ZM21.6667 66.6667C21.2246 66.6667 20.8007 66.8423 20.4882 67.1548C20.1756 67.4674 20 67.8913 20 68.3333V71.6667C20 72.1087 20.1756 72.5326 20.4882 72.8452C20.8007 73.1577 21.2246 73.3333 21.6667 73.3333C22.1087 73.3333 22.5326 73.1577 22.8452 72.8452C23.1577 72.5326 23.3333 72.1087 23.3333 71.6667V68.3333C23.3333 67.8913 23.1577 67.4674 22.8452 67.1548C22.5326 66.8423 22.1087 66.6667 21.6667 66.6667ZM11.6667 66.6667C11.2246 66.6667 10.8007 66.8423 10.4882 67.1548C10.1756 67.4674 10 67.8913 10 68.3333V71.6667C10 72.1087 10.1756 72.5326 10.4882 72.8452C10.8007 73.1577 11.2246 73.3333 11.6667 73.3333C12.1087 73.3333 12.5326 73.1577 12.8452 72.8452C13.1577 72.5326 13.3333 72.1087 13.3333 71.6667V68.3333C13.3333 67.8913 13.1577 67.4674 12.8452 67.1548C12.5326 66.8423 12.1087 66.6667 11.6667 66.6667ZM21.6667 76.6667C21.2246 76.6667 20.8007 76.8423 20.4882 77.1548C20.1756 77.4674 20 77.8913 20 78.3333V81.6667C20 82.1087 20.1756 82.5326 20.4882 82.8452C20.8007 83.1577 21.2246 83.3333 21.6667 83.3333C22.1087 83.3333 22.5326 83.1577 22.8452 82.8452C23.1577 82.5326 23.3333 82.1087 23.3333 81.6667V78.3333C23.3333 77.8913 23.1577 77.4674 22.8452 77.1548C22.5326 76.8423 22.1087 76.6667 21.6667 76.6667ZM11.6667 76.6667C11.2246 76.6667 10.8007 76.8423 10.4882 77.1548C10.1756 77.4674 10 77.8913 10 78.3333V81.6667C10 82.1087 10.1756 82.5326 10.4882 82.8452C10.8007 83.1577 11.2246 83.3333 11.6667 83.3333C12.1087 83.3333 12.5326 83.1577 12.8452 82.8452C13.1577 82.5326 13.3333 82.1087 13.3333 81.6667V78.3333C13.3333 77.8913 13.1577 77.4674 12.8452 77.1548C12.5326 76.8423 12.1087 76.6667 11.6667 76.6667ZM88.3333 56.6667C87.8913 56.6667 87.4674 56.8423 87.1548 57.1548C86.8423 57.4674 86.6667 57.8913 86.6667 58.3333V61.6667C86.6667 62.1087 86.8423 62.5326 87.1548 62.8452C87.4674 63.1577 87.8913 63.3333 88.3333 63.3333C88.7754 63.3333 89.1993 63.1577 89.5119 62.8452C89.8244 62.5326 90 62.1087 90 61.6667V58.3333C90 57.8913 89.8244 57.4674 89.5119 57.1548C89.1993 56.8423 88.7754 56.6667 88.3333 56.6667ZM78.3333 56.6667C77.8913 56.6667 77.4674 56.8423 77.1548 57.1548C76.8423 57.4674 76.6667 57.8913 76.6667 58.3333V61.6667C76.6667 62.1087 76.8423 62.5326 77.1548 62.8452C77.4674 63.1577 77.8913 63.3333 78.3333 63.3333C78.7754 63.3333 79.1993 63.1577 79.5119 62.8452C79.8244 62.5326 80 62.1087 80 61.6667V58.3333C80 57.8913 79.8244 57.4674 79.5119 57.1548C79.1993 56.8423 78.7754 56.6667 78.3333 56.6667ZM88.3333 66.6667C87.8913 66.6667 87.4674 66.8423 87.1548 67.1548C86.8423 67.4674 86.6667 67.8913 86.6667 68.3333V71.6667C86.6667 72.1087 86.8423 72.5326 87.1548 72.8452C87.4674 73.1577 87.8913 73.3333 88.3333 73.3333C88.7754 73.3333 89.1993 73.1577 89.5119 72.8452C89.8244 72.5326 90 72.1087 90 71.6667V68.3333C90 67.8913 89.8244 67.4674 89.5119 67.1548C89.1993 66.8423 88.7754 66.6667 88.3333 66.6667ZM78.3333 66.6667C77.8913 66.6667 77.4674 66.8423 77.1548 67.1548C76.8423 67.4674 76.6667 67.8913 76.6667 68.3333V71.6667C76.6667 72.1087 76.8423 72.5326 77.1548 72.8452C77.4674 73.1577 77.8913 73.3333 78.3333 73.3333C78.7754 73.3333 79.1993 73.1577 79.5119 72.8452C79.8244 72.5326 80 72.1087 80 71.6667V68.3333C80 67.8913 79.8244 67.4674 79.5119 67.1548C79.1993 66.8423 78.7754 66.6667 78.3333 66.6667ZM88.3333 76.6667C87.8913 76.6667 87.4674 76.8423 87.1548 77.1548C86.8423 77.4674 86.6667 77.8913 86.6667 78.3333V81.6667C86.6667 82.1087 86.8423 82.5326 87.1548 82.8452C87.4674 83.1577 87.8913 83.3333 88.3333 83.3333C88.7754 83.3333 89.1993 83.1577 89.5119 82.8452C89.8244 82.5326 90 82.1087 90 81.6667V78.3333C90 77.8913 89.8244 77.4674 89.5119 77.1548C89.1993 76.8423 88.7754 76.6667 88.3333 76.6667ZM78.3333 76.6667C77.8913 76.6667 77.4674 76.8423 77.1548 77.1548C76.8423 77.4674 76.6667 77.8913 76.6667 78.3333V81.6667C76.6667 82.1087 76.8423 82.5326 77.1548 82.8452C77.4674 83.1577 77.8913 83.3333 78.3333 83.3333C78.7754 83.3333 79.1993 83.1577 79.5119 82.8452C79.8244 82.5326 80 82.1087 80 81.6667V78.3333C80 77.8913 79.8244 77.4674 79.5119 77.1548C79.1993 76.8423 78.7754 76.6667 78.3333 76.6667ZM55 55C54.558 55 54.1341 55.1756 53.8215 55.4882C53.5089 55.8007 53.3333 56.2246 53.3333 56.6667V60C53.3333 60.442 53.5089 60.866 53.8215 61.1785C54.1341 61.4911 54.558 61.6667 55 61.6667C55.442 61.6667 55.866 61.4911 56.1785 61.1785C56.4911 60.866 56.6667 60.442 56.6667 60V56.6667C56.6667 56.2246 56.4911 55.8007 56.1785 55.4882C55.866 55.1756 55.442 55 55 55Z" fill="#FDCA01"/>
</g>
</g>
</g>
<defs>
<clipPath id="clip0_150_327">
<rect width="100" height="100" fill="white"/>
</clipPath>
</defs>
</svg>
