<svg width="100" height="100" viewBox="0 0 100 100" fill="none" xmlns="http://www.w3.org/2000/svg">
<g clip-path="url(#clip0_150_320)">
<path d="M12.3516 26.7139H54.6279C55.1015 26.7139 55.5557 26.5147 55.8906 26.1602C56.2254 25.8056 56.4136 25.3247 56.4136 24.8232C56.4136 24.3218 56.2254 23.8409 55.8906 23.4863C55.5557 23.1317 55.1015 22.9325 54.6279 22.9325H12.3516C11.878 22.9325 11.4238 23.1317 11.0889 23.4863C10.7541 23.8409 10.5659 24.3218 10.5659 24.8232C10.5659 25.3247 10.7541 25.8056 11.0889 26.1602C11.4238 26.5147 11.878 26.7139 12.3516 26.7139ZM40.7263 34.1237H12.3534C11.8798 34.1237 11.4256 34.3229 11.0907 34.6774C10.7558 35.032 10.5677 35.5129 10.5677 36.0144C10.5677 36.5158 10.7558 36.9967 11.0907 37.3513C11.4256 37.7059 11.8798 37.9051 12.3534 37.9051H40.7227C41.1963 37.9051 41.6505 37.7059 41.9854 37.3513C42.3203 36.9967 42.5084 36.5158 42.5084 36.0144C42.5084 35.5129 42.3203 35.032 41.9854 34.6774C41.6505 34.3229 41.1963 34.1237 40.7227 34.1237H40.7263ZM12.3552 45.311C11.8816 45.311 11.4274 45.5102 11.0925 45.8648C10.7576 46.2194 10.5695 46.7003 10.5695 47.2018C10.5695 47.7032 10.7576 48.1841 11.0925 48.5387C11.4274 48.8933 11.8816 49.0925 12.3552 49.0925H38.562C39.0356 49.0925 39.4898 48.8933 39.8247 48.5387C40.1596 48.1841 40.3477 47.7032 40.3477 47.2018C40.3477 46.7003 40.1596 46.2194 39.8247 45.8648C39.4898 45.5102 39.0356 45.311 38.562 45.311H12.3552ZM39.9406 58.3929C39.9406 57.8915 39.7524 57.4105 39.4175 57.056C39.0827 56.7014 38.6285 56.5022 38.1549 56.5022H12.357C11.8834 56.5022 11.4292 56.7014 11.0943 57.056C10.7594 57.4105 10.5713 57.8915 10.5713 58.3929C10.5713 58.8944 10.7594 59.3753 11.0943 59.7298C11.4292 60.0844 11.8834 60.2836 12.357 60.2836H38.1549C38.6285 60.2836 39.0827 60.0844 39.4175 59.7298C39.7524 59.3753 39.9406 58.8944 39.9406 58.3929ZM22.9211 14.9726H44.0584C44.532 14.9726 44.9862 14.7734 45.321 14.4188C45.6559 14.0642 45.8441 13.5833 45.8441 13.0819C45.8441 12.5804 45.6559 12.0995 45.321 11.7449C44.9862 11.3904 44.532 11.1912 44.0584 11.1912H22.9229C22.4493 11.1912 21.9951 11.3904 21.6602 11.7449C21.3254 12.0995 21.1372 12.5804 21.1372 13.0819C21.1372 13.5833 21.3254 14.0642 21.6602 14.4188C21.9951 14.7734 22.4475 14.9726 22.9211 14.9726ZM64.8474 37.5232C62.3768 37.5103 59.9384 38.117 57.7317 39.2934C55.525 40.4699 53.6126 42.1828 52.1511 44.2919C52.0116 44.4916 51.9106 44.7183 51.8538 44.9593C51.7971 45.2003 51.7857 45.4507 51.8204 45.6963C51.855 45.942 51.935 46.1779 52.0558 46.3908C52.1766 46.6037 52.3358 46.7893 52.5243 46.937C52.7129 47.0848 52.9271 47.1917 53.1546 47.2518C53.3822 47.3119 53.6188 47.324 53.8507 47.2873C54.0827 47.2506 54.3056 47.1659 54.5066 47.038C54.7077 46.9101 54.883 46.7415 55.0225 46.5419C56.1537 44.91 57.6336 43.5847 59.3412 42.6745C61.0488 41.7642 62.9356 41.2948 64.8474 41.3046C65.321 41.3046 65.7752 41.1054 66.1101 40.7508C66.445 40.3962 66.6331 39.9153 66.6331 39.4139C66.6331 38.9124 66.445 38.4315 66.1101 38.077C65.7752 37.7224 65.321 37.5232 64.8474 37.5232Z" fill="#FDCA01"/>
<path d="M96.5292 67.6971C96.5453 67.6328 86.4597 59.5141 86.6025 59.412C87.2838 56.1296 87.3002 52.7315 86.6508 49.4419C86.0013 46.1523 84.7007 43.0457 82.8347 40.3271V27.0694C82.8324 24.3423 81.8082 21.7276 79.9869 19.7992C78.1657 17.8708 75.6962 16.7864 73.1206 16.7839H66.9814V7.23577C66.979 5.31749 66.2582 3.4785 64.9771 2.12207C63.6961 0.765643 61.9592 0.00250134 60.1475 0H6.83385C5.02181 0.00250236 3.2847 0.765904 2.00357 2.12274C0.722433 3.47958 0.00188993 5.31906 0 7.23766V75.9784C0.00141878 77.897 0.721867 79.7366 2.00315 81.0932C3.28444 82.4499 5.02183 83.2127 6.83385 83.2142H15.8534V89.7183C15.8562 92.4442 16.8802 95.0577 18.7007 96.9852C20.5212 98.9128 22.9894 99.997 25.564 100H73.1223C75.6971 99.9965 78.1653 98.9119 79.9858 96.984C81.8062 95.0562 82.8301 92.4425 82.8329 89.7164V80.1588L86.1883 82.9382C95.8239 90.2685 105.295 75.2713 96.5292 67.6971ZM83.1187 58.5857C80.5223 72.2897 64.1189 78.7578 53.6547 70.1683C39.1602 58.7238 47.0244 34.3089 64.8564 34.377C76.3634 33.997 85.9936 46.6289 83.1187 58.5857ZM73.1223 20.5672C74.7505 20.5692 76.3114 21.2549 77.4626 22.4739C78.6139 23.6928 79.2615 25.3455 79.2633 27.0694V36.1959C75.7945 33.0845 71.5063 31.177 66.9796 30.7317V20.5672H73.1223ZM3.57139 75.9784V7.23766C3.57233 6.32165 3.9163 5.44341 4.52787 4.79551C5.13945 4.14761 5.96872 3.78293 6.83385 3.78143H60.1475C61.0126 3.78293 61.8419 4.14761 62.4535 4.79551C63.065 5.44341 63.409 6.32165 63.41 7.23766V30.658C60.1692 30.8708 57.0116 31.8313 54.1584 33.4721C51.3051 35.113 48.8252 37.3945 46.8923 40.1569C36.446 54.6493 45.8173 76.5022 62.9314 77.7538C62.6432 78.2641 62.2352 78.6868 61.7471 78.9807C61.2589 79.2746 60.7073 79.4297 60.1457 79.4309H6.83385C5.96888 79.4299 5.13961 79.0656 4.52798 78.418C3.91636 77.7704 3.57233 76.8924 3.57139 75.9765V75.9784ZM79.2633 89.7164C79.2619 91.4409 78.6143 93.0944 77.4626 94.3138C76.3109 95.5332 74.7493 96.2189 73.1206 96.2205H25.5658C23.9377 96.2179 22.377 95.5318 21.226 94.3125C20.0751 93.0931 19.428 91.4403 19.4266 89.7164V83.2142H60.1493C61.6709 83.2089 63.1473 82.6653 64.3437 81.6698C65.5402 80.6743 66.3881 79.284 66.7528 77.7198C70.0604 77.449 73.2658 76.3813 76.1241 74.5982L79.2651 77.1999L79.2633 89.7164ZM95.3971 78.7843C95.027 79.3715 94.5461 79.8713 93.9847 80.2522C93.4233 80.633 92.7934 80.8866 92.1349 80.9971C91.4763 81.1076 90.8033 81.0725 90.1582 80.894C89.5131 80.7156 88.9098 80.3977 88.3865 79.9603L79.1383 72.2972C81.911 69.9037 84.0686 66.8082 85.4115 63.2974L94.3328 70.675C95.4447 71.6344 96.1725 73.0039 96.3699 74.5082C96.5674 76.0125 96.2198 77.5402 95.3971 78.7843Z" fill="#FDCA01"/>
</g>
<defs>
<clipPath id="clip0_150_320">
<rect width="100" height="100" fill="white"/>
</clipPath>
</defs>
</svg>
