<svg width="100" height="100" viewBox="0 0 100 100" fill="none" xmlns="http://www.w3.org/2000/svg">
<g id="Frame">
<g id="Group">
<path id="Vector" d="M40.6024 60.715C40.6086 60.7154 40.6145 60.7171 40.6206 60.7173C40.6331 60.7177 40.6456 60.7224 40.6581 60.7224L40.6594 60.7222L40.6608 60.7224C40.6688 60.7224 40.6766 60.7193 40.6846 60.7193C40.7174 60.7195 40.7491 60.7242 40.7819 60.7242H40.7827C50.7305 60.7242 58.8235 52.6312 58.8235 42.683C58.8235 32.7347 50.7305 24.6417 40.7827 24.6417C40.7639 24.6417 40.7458 24.6445 40.727 24.6447C40.7045 24.6435 40.6819 24.6468 40.6592 24.6468C40.6159 24.647 40.5726 24.6492 40.5295 24.6535C40.5047 24.6558 40.4797 24.6546 40.4549 24.6583C30.6592 24.8357 22.7415 32.8453 22.7415 42.683C22.7415 52.5703 30.7381 60.6167 40.6024 60.715ZM26.7493 48.8509H30.8483C31.8004 51.9595 33.4629 54.7988 35.7352 57.1507C31.7163 55.7439 28.4565 52.7195 26.7493 48.8509ZM56.1208 42.6828C56.1208 43.8759 55.9702 45.0326 55.7112 46.1482H51.0963C51.2856 45.0056 51.393 43.8384 51.393 42.6494C51.393 41.4849 51.2879 40.3404 51.103 39.2183H55.7116C55.9704 40.3337 56.1208 41.49 56.1208 42.6828ZM48.6903 42.7163C48.6903 43.8837 48.5784 45.0312 48.3655 46.1484H42.1334V39.2185H48.3596C48.5799 40.3714 48.6907 41.5426 48.6903 42.7163ZM33.7034 48.8509H39.4309V56.8646C36.7833 54.7494 34.8235 51.9808 33.7034 48.8509ZM42.1334 56.6564V48.8507H47.6227C46.5393 51.8742 44.6604 54.565 42.1334 56.6564ZM42.1334 36.5158V28.7095C44.6551 30.7972 46.5313 33.4849 47.6159 36.5158H42.1334ZM39.4309 28.5011V36.5158H33.6959C34.8147 33.3931 36.7772 30.6203 39.4309 28.5011ZM39.4309 39.2183V46.1482H32.959C32.7387 44.9949 32.628 43.8235 32.6284 42.6494C32.6284 41.4824 32.7403 40.3351 32.953 39.2183H39.4309ZM30.2161 46.1482H25.8536C25.5946 45.0326 25.444 43.8759 25.444 42.6828C25.444 41.4898 25.5944 40.3335 25.8534 39.2183H30.2225C30.0334 40.3605 29.926 41.5275 29.926 42.7162C29.926 43.8808 30.0313 45.0259 30.2161 46.1482ZM45.4333 57.296C47.7669 54.9281 49.4926 52.0305 50.4631 48.8507H54.8155C53.0518 52.8476 49.6362 55.955 45.4333 57.296ZM54.8159 36.5158H50.4708C49.4982 33.3355 47.7705 30.4378 45.435 28.0703C49.6376 29.4115 53.0526 32.5191 54.8159 36.5158ZM35.7366 28.2146C33.4692 30.5628 31.8088 33.3999 30.8553 36.5158H26.7489C28.4561 32.6462 31.7166 29.6212 35.7366 28.2146ZM88.3538 17.7408C87.4278 15.946 85.8645 14.622 83.9518 14.0115L41.1952 0.359514C39.2834 -0.252791 37.2415 -0.0785724 35.4469 0.848576C33.6526 1.77416 32.3282 3.33744 31.7176 5.24994L28.8799 14.1365H18.3409C14.1823 14.1365 10.7991 17.5201 10.7991 21.6787V92.4587C10.7991 96.6173 14.1823 99.9999 18.3409 99.9999H63.2239C67.3825 99.9999 70.7657 96.6173 70.7657 92.4587V80.1046L88.8424 23.4892C89.453 21.5775 89.2797 19.5355 88.3538 17.7408ZM68.0629 92.4587C68.0629 95.1271 65.892 97.2974 63.2239 97.2974H18.3409C15.6725 97.2974 13.5018 95.1271 13.5018 92.4587V21.6787C13.5018 19.0103 15.6727 16.8392 18.3409 16.8392H63.2239C65.8922 16.8392 68.0629 19.0105 68.0629 21.6787V92.4587ZM86.2682 22.6675L70.7657 71.2206V21.6787C70.7657 17.5201 67.3825 14.1365 63.2239 14.1365H31.7163L34.2917 6.07182C34.6827 4.84721 35.5331 3.84506 36.686 3.24955C37.8385 2.65483 39.1475 2.54311 40.3735 2.93373L83.1301 16.5859C84.3547 16.9773 85.3573 17.8273 85.952 18.9806C86.5467 20.133 86.6592 21.4429 86.2682 22.6675ZM59.0102 71.1712C59.0102 71.5296 58.8678 71.8733 58.6143 72.1267C58.3609 72.3801 58.0172 72.5225 57.6588 72.5226H23.9053C23.5509 72.5166 23.213 72.3715 22.9645 72.1188C22.716 71.866 22.5767 71.5257 22.5767 71.1712C22.5767 70.8167 22.716 70.4765 22.9645 70.2237C23.213 69.9709 23.5509 69.8259 23.9053 69.8199H57.659C57.8365 69.8199 58.0122 69.8548 58.1761 69.9227C58.3401 69.9906 58.4891 70.0902 58.6145 70.2157C58.74 70.3412 58.8395 70.4901 58.9074 70.6541C58.9753 70.8181 59.0102 70.9938 59.0102 71.1712ZM59.0102 80.7103C59.0102 81.0687 58.8678 81.4124 58.6143 81.6658C58.3609 81.9192 58.0172 82.0616 57.6588 82.0617H23.9053C23.5509 82.0556 23.213 81.9106 22.9645 81.6578C22.716 81.4051 22.5767 81.0648 22.5767 80.7103C22.5767 80.3558 22.716 80.0155 22.9645 79.7627C23.213 79.51 23.5509 79.365 23.9053 79.3589H57.659C58.0174 79.359 58.361 79.5014 58.6144 79.7549C58.8678 80.0083 59.0102 80.3519 59.0102 80.7103ZM51.3545 90.2495C51.3545 90.6079 51.2121 90.9516 50.9587 91.2051C50.7053 91.4585 50.3616 91.6009 50.0032 91.6009H31.5612C31.2068 91.5949 30.8689 91.4499 30.6204 91.1971C30.3719 90.9443 30.2326 90.604 30.2326 90.2495C30.2326 89.8951 30.3719 89.5548 30.6204 89.302C30.8689 89.0492 31.2068 88.9042 31.5612 88.8982H50.0032C50.3616 88.8982 50.7053 89.0406 50.9587 89.294C51.2122 89.5474 51.3545 89.8911 51.3545 90.2495Z" fill="#FDCA01"/>
</g>
</g>
</svg>
