<svg width="100" height="100" viewBox="0 0 100 100" fill="none" xmlns="http://www.w3.org/2000/svg">
<g id="Frame">
<g id="Group">
<g id="20-Receiver">
<path id="Vector" d="M15.9486 71.4172L13.7393 69.2078L18.1346 64.8125C18.8205 62.4437 22.5002 51.5625 32.0314 51.5625C36.1908 51.5777 40.2914 52.5451 44.0189 54.3906C46.1127 55.4906 48.4196 56.1249 50.7814 56.25H61.7189C63.3765 56.25 64.9663 56.9085 66.1384 58.0806C67.3105 59.2527 67.9689 60.8424 67.9689 62.5C67.9689 64.1576 67.3105 65.7473 66.1384 66.9194C64.9663 68.0915 63.3765 68.75 61.7189 68.75H45.3127V65.625H61.7189C62.5477 65.625 63.3426 65.2958 63.9287 64.7097C64.5147 64.1237 64.8439 63.3288 64.8439 62.5C64.8439 61.6712 64.5147 60.8763 63.9287 60.2903C63.3426 59.7042 62.5477 59.375 61.7189 59.375H50.7814C47.9891 59.2642 45.2553 58.5409 42.7736 57.2563C39.4378 55.5862 35.762 54.7072 32.0314 54.6875C24.0002 54.6875 21.0752 65.8922 21.0471 66.0062C20.9773 66.2798 20.8354 66.5297 20.6361 66.7297L15.9486 71.4172Z" fill="#FDCA01"/>
<path id="Vector_2" d="M30.0111 85.4798L27.8018 83.2704L34.0518 77.0204C34.2096 76.8635 34.3987 76.7416 34.6068 76.6627C34.815 76.5838 35.0374 76.5497 35.2596 76.5626L58.3986 78.1048L84.4768 69.6532C86.0143 69.2673 87.5002 68.2579 87.5002 67.1876C87.5002 64.9392 86.6236 64.0626 84.3752 64.0626H66.4064V60.9376H84.3752C85.2176 60.8495 86.0691 60.9506 86.8674 61.2335C87.6658 61.5165 88.3909 61.9741 88.9898 62.573C89.5887 63.1719 90.0463 63.897 90.3293 64.6954C90.6122 65.4937 90.7133 66.3452 90.6252 67.1876C90.6252 70.0376 87.8846 72.022 85.3377 72.6564L59.0752 81.172C58.8864 81.2313 58.6884 81.2562 58.4908 81.2454L35.7596 79.7298L30.0111 85.4798Z" fill="#FDCA01"/>
<path id="Vector_3" d="M25.7814 95.3124C25.367 95.3123 24.9697 95.1476 24.6767 94.8546L5.92672 76.1046C5.63379 75.8116 5.46924 75.4142 5.46924 74.9999C5.46924 74.5856 5.63379 74.1882 5.92672 73.8952L12.1767 67.6452C12.4697 67.3523 12.8671 67.1877 13.2814 67.1877C13.6957 67.1877 14.0931 67.3523 14.3861 67.6452L33.1361 86.3952C33.429 86.6882 33.5936 87.0856 33.5936 87.4999C33.5936 87.9142 33.429 88.3116 33.1361 88.6046L26.8861 94.8546C26.5931 95.1476 26.1958 95.3123 25.7814 95.3124ZM9.24078 74.9999L25.7814 91.5405L29.822 87.4999L13.2814 70.9593L9.24078 74.9999Z" fill="#FDCA01"/>
<path id="Vector_4" d="M20.3125 95.3125H1.5625C1.1481 95.3125 0.750671 95.1478 0.457646 94.8548C0.16462 94.5618 0 94.1644 0 93.75V84.375C8.84959e-05 83.9606 0.164767 83.5632 0.457813 83.2703L8.27031 75.4578L10.4797 77.6671L3.125 85.0218V92.1875H19.6656L22.3328 89.5203L24.5422 91.7296L21.4172 94.8546C21.1242 95.1477 20.7269 95.3124 20.3125 95.3125ZM78.125 48.4375H70.3125C68.9118 48.4997 67.5345 48.0626 66.426 47.2042C65.3175 46.3457 64.5497 45.1216 64.2594 43.75H56.25C54.5924 43.75 53.0027 43.0915 51.8306 41.9194C50.6585 40.7473 50 39.1576 50 37.5C50 35.8423 50.6585 34.2526 51.8306 33.0805C53.0027 31.9084 54.5924 31.25 56.25 31.25H64.9781L70.7703 25.4578L72.9797 27.6671L66.7297 33.9171C66.4367 34.2102 66.0394 34.3749 65.625 34.375H56.25C55.4212 34.375 54.6263 34.7042 54.0403 35.2902C53.4542 35.8763 53.125 36.6712 53.125 37.5C53.125 38.3288 53.4542 39.1236 54.0403 39.7097C54.6263 40.2957 55.4212 40.625 56.25 40.625H65.625C66.0394 40.625 66.4368 40.7896 66.7299 41.0826C67.0229 41.3756 67.1875 41.7731 67.1875 42.1875C67.1604 42.6049 67.2226 43.0232 67.3701 43.4147C67.5176 43.8061 67.7468 44.1616 68.0426 44.4573C68.3384 44.7531 68.6938 44.9824 69.0853 45.1298C69.4767 45.2773 69.8951 45.3396 70.3125 45.3125H78.125C78.5423 45.339 78.9604 45.2764 79.3516 45.1288C79.7428 44.9812 80.0981 44.7519 80.3938 44.4562C80.6894 44.1605 80.9187 43.8053 81.0663 43.4141C81.214 43.0229 81.2766 42.6047 81.25 42.1875C81.25 41.7731 81.4146 41.3756 81.7076 41.0826C82.0007 40.7896 82.3981 40.625 82.8125 40.625H89.0625V43.75H84.2188C83.8919 45.1102 83.1088 46.3173 82 47.1703C80.8912 48.0232 79.5235 48.4705 78.125 48.4375Z" fill="#FDCA01"/>
<path id="Vector_5" d="M98.4375 48.4375H89.0625C88.6481 48.4375 88.2507 48.2729 87.9576 47.9799C87.6646 47.6868 87.5 47.2894 87.5 46.875V18.75C87.5 18.3356 87.6646 17.9382 87.9576 17.6451C88.2507 17.3521 88.6481 17.1875 89.0625 17.1875H98.4375C98.8519 17.1875 99.2493 17.3521 99.5424 17.6451C99.8354 17.9382 100 18.3356 100 18.75V46.875C100 47.2894 99.8354 47.6868 99.5424 47.9799C99.2493 48.2729 98.8519 48.4375 98.4375 48.4375ZM90.625 45.3125H96.875V20.3125H90.625V45.3125Z" fill="#FDCA01"/>
<path id="Vector_6" d="M89.0625 23.4375H82.8125C82.4921 23.4372 82.1796 23.3385 81.9172 23.1547L66.6953 12.5H60.9375V9.375H67.1875C67.5079 9.37525 67.8204 9.47398 68.0828 9.65781L83.3047 20.3125H89.0625V23.4375Z" fill="#FDCA01"/>
<path id="Vector_7" d="M57.8125 48.4375H4.6875C3.4443 48.4375 2.25201 47.9436 1.37294 47.0646C0.49386 46.1855 0 44.9932 0 43.75L0 9.375C0 8.1318 0.49386 6.93951 1.37294 6.06044C2.25201 5.18136 3.4443 4.6875 4.6875 4.6875H57.8125C59.0557 4.6875 60.248 5.18136 61.1271 6.06044C62.0061 6.93951 62.5 8.1318 62.5 9.375V32.8125H59.375V9.375C59.375 8.9606 59.2104 8.56317 58.9174 8.27015C58.6243 7.97712 58.2269 7.8125 57.8125 7.8125H4.6875C4.2731 7.8125 3.87567 7.97712 3.58265 8.27015C3.28962 8.56317 3.125 8.9606 3.125 9.375V43.75C3.125 44.1644 3.28962 44.5618 3.58265 44.8549C3.87567 45.1479 4.2731 45.3125 4.6875 45.3125H57.8125C58.2269 45.3125 58.6243 45.1479 58.9174 44.8549C59.2104 44.5618 59.375 44.1644 59.375 43.75V42.1875H62.5V43.75C62.5 44.9932 62.0061 46.1855 61.1271 47.0646C60.248 47.9436 59.0557 48.4375 57.8125 48.4375Z" fill="#FDCA01"/>
<path id="Vector_8" d="M31.25 32.8125C30.8818 32.8125 30.5254 32.6824 30.2438 32.4453L1.5625 8.28906L3.575 5.89844L31.25 29.2062L58.9312 5.89844L60.9375 8.28906L32.25 32.4453C31.97 32.6811 31.6161 32.811 31.25 32.8125Z" fill="#FDCA01"/>
<path id="Vector_9" d="M1.37988 44.8484L22.333 23.8953L24.5439 26.1046L3.59082 47.0578L1.37988 44.8484ZM37.958 26.1046L40.1674 23.8953L49.5393 33.2671L47.3299 35.4781L37.958 26.1046Z" fill="#FDCA01"/>
</g>
</g>
</g>
</svg>
