<svg width="50" height="50" viewBox="0 0 50 50" fill="none" xmlns="http://www.w3.org/2000/svg">
<g id="Frame" clip-path="url(#clip0_75_480)">
<g id="Group">
<g id="Layer 2">
<g id="19.vk">
<path id="Vector" d="M25 50C38.8071 50 50 38.8071 50 25C50 11.1929 38.8071 0 25 0C11.1929 0 0 11.1929 0 25C0 38.8071 11.1929 50 25 50Z" fill="#4065D6"/>
<path id="Vector_2" d="M36.5296 32.1446C35.9441 32.2269 33.0987 32.1446 32.9507 32.1446C32.215 32.1521 31.506 31.8697 30.977 31.3584C30.375 30.7795 29.8323 30.1413 29.2566 29.5394C29.0818 29.3559 28.8938 29.1854 28.6941 29.0295C28.2237 28.6709 27.7599 28.7532 27.5395 29.3058C27.3669 29.9048 27.248 30.518 27.1842 31.138C27.1739 31.3992 27.0605 31.6457 26.8687 31.8233C26.6769 32.0009 26.4224 32.0952 26.1612 32.0854C25.773 32.1051 25.3849 32.115 25 32.1051C23.6 32.0979 22.2215 31.7597 20.977 31.1183C19.6335 30.3675 18.4624 29.3433 17.5395 28.1117C16.0628 26.1618 14.7866 24.0679 13.7303 21.8617C13.6744 21.7499 12.5658 19.3913 12.5395 19.2828C12.4708 19.1282 12.4642 18.9531 12.5212 18.7939C12.5781 18.6346 12.6942 18.5034 12.8454 18.4275C13.0428 18.3519 16.6974 18.4275 16.7566 18.4275C17.0287 18.4249 17.2946 18.5094 17.5153 18.6686C17.736 18.8278 17.9001 19.0533 17.9836 19.3124C18.6595 21.0355 19.5825 22.6511 20.7237 24.1084C20.8829 24.3048 21.0702 24.4767 21.2796 24.6183C21.3336 24.6704 21.4005 24.7071 21.4734 24.7247C21.5463 24.7423 21.6226 24.74 21.6944 24.7182C21.7662 24.6964 21.8308 24.6559 21.8817 24.6007C21.9325 24.5455 21.9677 24.4778 21.9836 24.4045C22.1281 23.9289 22.2132 23.4372 22.2369 22.9407C22.2566 21.9538 22.2369 21.2959 22.1809 20.3091C22.2008 19.9728 22.0873 19.6422 21.865 19.3891C21.6426 19.136 21.3295 18.9808 20.9934 18.9571C20.704 18.9078 20.6645 18.6709 20.8651 18.4341C21.25 17.944 21.7829 17.865 22.3619 17.8354C23.2369 17.7861 24.1151 17.8354 24.9934 17.8354H25.1842C25.5698 17.8344 25.9545 17.873 26.3322 17.9505C26.5531 17.9958 26.7535 18.1112 26.9034 18.2795C27.0534 18.4478 27.145 18.6601 27.1645 18.8847C27.2088 19.1333 27.2287 19.3856 27.2237 19.638C27.2007 20.7137 27.148 21.7894 27.1349 22.8683C27.127 23.2945 27.1656 23.7202 27.25 24.138C27.3783 24.7104 27.7697 24.8551 28.1711 24.4374C28.6712 23.9006 29.1297 23.3266 29.5428 22.7203C30.2855 21.6163 30.8971 20.4296 31.3651 19.1841C31.6184 18.5459 31.8125 18.4045 32.5 18.4045H36.3783C36.6097 18.4006 36.8404 18.4317 37.0625 18.4966C37.1409 18.5175 37.2142 18.5543 37.2778 18.6047C37.3414 18.6551 37.3939 18.718 37.4322 18.7896C37.4704 18.8612 37.4935 18.9398 37.5001 19.0207C37.5067 19.1016 37.4966 19.1829 37.4704 19.2597C37.2437 20.085 36.8545 20.8566 36.3257 21.5295C35.5362 22.6446 34.7073 23.7334 33.898 24.819C33.7956 24.961 33.7023 25.1093 33.6184 25.263C33.3158 25.8091 33.3388 26.1183 33.7763 26.5788C34.4803 27.3025 35.2336 27.9834 35.9112 28.7269C36.4109 29.2686 36.8622 29.853 37.2599 30.4736C37.7599 31.2762 37.454 32.013 36.5296 32.1446Z" fill="white"/>
</g>
</g>
</g>
</g>
<defs>
<clipPath id="clip0_75_480">
<rect width="50" height="50" fill="white"/>
</clipPath>
</defs>
</svg>
